<?xml version="1.0" encoding="UTF-8"?>
<svg version="1.1" xmlns="http://www.w3.org/2000/svg" width="726" height="190">
<path d="M0 0 C3.5 0.25 3.5 0.25 5.5 2.25 C5.53656871 4.27702897 5.52060263 6.30515084 5.4765625 8.33203125 C5.73207196 12.38280455 5.96354995 14.56899991 8.49511719 17.78271484 C11.18957008 20.03587871 13.94189164 22.00589377 16.875 23.9375 C17.84695312 24.62521484 18.81890625 25.31292969 19.8203125 26.02148438 C22.3554883 27.80556182 24.91440866 29.54019155 27.5 31.25 C28.49 31.91 29.48 32.57 30.5 33.25 C30.78875 32.46625 31.0775 31.6825 31.375 30.875 C32.5 28.25 32.5 28.25 34.5 26.25 C39.61957412 25.70536446 39.61957412 25.70536446 42.1796875 27.2890625 C44.21565552 30.31289666 43.8152465 33.42938458 43.6875 36.9375 C43.66719727 37.9903418 43.66719727 37.9903418 43.64648438 39.06445312 C43.61120182 40.79329829 43.55739583 42.52174765 43.5 44.25 C44.08394531 44.53488281 44.66789062 44.81976563 45.26953125 45.11328125 C48.64639798 46.83424135 51.80188667 48.55188667 54.5 51.25 C55.60194844 54.80072276 56.19126329 56.86747342 54.5 60.25 C52.05061214 61.47469393 50.26970405 61.39387917 47.59619141 60.95507812 C43.01188369 59.41309342 39.4048331 55.99888005 35.6875 53 C33.83490547 51.54487121 31.98070732 50.091782 30.125 48.640625 C29.19300781 47.90779297 28.26101562 47.17496094 27.30078125 46.41992188 C23.00477732 43.09156737 18.60603744 39.9129308 14.1875 36.75 C13.41108154 36.19280273 12.63466309 35.63560547 11.8347168 35.06152344 C10.05825533 33.7885315 8.27942544 32.51884549 6.5 31.25 C6.17 33.23 5.84 35.21 5.5 37.25 C6.08144775 37.52440918 6.66289551 37.79881836 7.26196289 38.08154297 C9.44812221 39.22291512 11.32745021 40.4805454 13.30859375 41.9453125 C14.0456958 42.48873291 14.78279785 43.03215332 15.54223633 43.59204102 C16.33267334 44.18041748 17.12311035 44.76879395 17.9375 45.375 C18.76209717 45.98593506 19.58669434 46.59687012 20.4362793 47.22631836 C26.92565249 52.04784777 33.37689081 56.91950661 39.8125 61.8125 C40.68898193 62.47846191 41.56546387 63.14442383 42.46850586 63.83056641 C44.82095208 65.62618421 47.16090412 67.43705513 49.5 69.25 C50.13856934 69.7258252 50.77713867 70.20165039 51.43505859 70.69189453 C53.10546875 71.98046875 53.10546875 71.98046875 55.5 74.25 C55.5 78 55.5 78 54.5 81.25 C51.76094655 82.61952673 49.52912668 82.37621361 46.5 82.25 C45.84 81.92 45.18 81.59 44.5 81.25 C44.17 83.23 43.84 85.21 43.5 87.25 C44.015625 87.476875 44.53125 87.70375 45.0625 87.9375 C53.8968254 92.69444444 53.8968254 92.69444444 55.6875 97.3125 C55.5 100.25 55.5 100.25 53.9375 102.6875 C51.5 104.25 51.5 104.25 48.3125 104.0625 C45.5 103.25 45.5 103.25 44.5 102.25 C43.74241756 104.94802289 43.74241756 104.94802289 44.5 108.25 C47.25638284 110.93956144 50.35269261 113.04574861 53.5 115.25 C54.16 115.91 54.82 116.57 55.5 117.25 C55.25 120.8125 55.25 120.8125 54.5 124.25 C51.68509577 125.65745212 49.62123269 125.49765175 46.5 125.25 C44.19262695 124.00341797 44.19262695 124.00341797 41.98828125 122.2421875 C41.15643311 121.59121094 40.32458496 120.94023437 39.4675293 120.26953125 C38.59136963 119.56183594 37.71520996 118.85414063 36.8125 118.125 C34.95169159 116.66257159 33.08968418 115.20166768 31.2265625 113.7421875 C30.28200195 112.99678711 29.33744141 112.25138672 28.36425781 111.48339844 C23.87232178 107.98082166 19.2847038 104.61252119 14.6875 101.25 C13.86354736 100.64526855 13.03959473 100.04053711 12.19067383 99.41748047 C10.29500825 98.02663334 8.39817537 96.63741871 6.5 95.25 C5.8119358 97.97660875 5.8119358 97.97660875 6.5 101.25 C8.89642735 103.82403059 11.78049862 105.66766456 14.6875 107.625 C16.42212004 108.84415588 18.15513145 110.06560299 19.88671875 111.2890625 C21.25642822 112.2466748 21.25642822 112.2466748 22.65380859 113.22363281 C27.52821758 116.69400463 32.25805065 120.3518377 37 124 C38.75967878 125.34992074 40.52004293 126.69894878 42.28125 128.046875 C43.3959668 128.90297363 43.3959668 128.90297363 44.53320312 129.77636719 C46.15003607 130.9877877 47.81899306 132.12932871 49.5 133.25 C50.4375 136.125 50.4375 136.125 50.5 139.25 C48.9375 141.6875 48.9375 141.6875 46.5 143.25 C41.97511551 142.93435531 39.33842611 141.79688571 35.8125 139.00390625 C34.95487061 138.33552734 34.09724121 137.66714844 33.21362305 136.97851562 C32.31812744 136.26373047 31.42263184 135.54894531 30.5 134.8125 C28.63280509 133.35380999 26.76431109 131.89678136 24.89453125 130.44140625 C23.9813916 129.72742676 23.06825195 129.01344727 22.12744141 128.27783203 C16.70817704 124.09529999 11.09995924 120.18503556 5.5 116.25 C5.52356567 117.6429126 5.52356567 117.6429126 5.54760742 119.06396484 C5.59868853 122.50428829 5.63632607 125.94420976 5.66479492 129.38476562 C5.679896 130.87473909 5.70037858 132.36466801 5.72631836 133.85449219 C5.76264584 135.9942523 5.77971221 138.13342566 5.79296875 140.2734375 C5.8086792 141.56169434 5.82438965 142.84995117 5.84057617 144.17724609 C5.67199097 145.69825928 5.67199097 145.69825928 5.5 147.25 C2.5 149.25 2.5 149.25 -1.125 149 C-2.795625 148.62875 -2.795625 148.62875 -4.5 148.25 C-5.92267862 145.40464275 -5.71971869 142.88781448 -5.81640625 139.7109375 C-5.85830078 138.40898437 -5.90019531 137.10703125 -5.94335938 135.765625 C-5.98317299 134.38541955 -6.02288522 133.00521117 -6.0625 131.625 C-6.10569407 130.23696585 -6.14930865 128.84894472 -6.19335938 127.4609375 C-6.29972 124.05739744 -6.40174714 120.65378222 -6.5 117.25 C-6.99701416 117.61649658 -7.49402832 117.98299316 -8.00610352 118.3605957 C-8.70662842 118.87710693 -9.40715332 119.39361816 -10.12890625 119.92578125 C-10.90983643 120.50175049 -11.6907666 121.07771973 -12.49536133 121.67114258 C-14.21675958 122.93939481 -15.93926695 124.20614292 -17.6628418 125.47143555 C-21.76219519 128.48259281 -25.84979742 131.50436381 -29.890625 134.59375 C-30.55634521 135.09737061 -31.22206543 135.60099121 -31.90795898 136.11987305 C-33.14607087 137.05770193 -34.37778038 138.00406504 -35.60180664 138.96020508 C-39.17959015 141.65164015 -41.98538442 143.11628078 -46.5 143.25 C-49.5 141.25 -49.5 141.25 -50.1875 138.0625 C-49.43549754 133.89230454 -49.08906095 133.49084645 -46.01953125 130.9296875 C-45.2922583 130.32261963 -44.56498535 129.71555176 -43.81567383 129.09008789 C-40.11335196 126.14813745 -36.32912125 123.33661464 -32.5 120.5625 C-31.68490967 119.96308594 -30.86981934 119.36367187 -30.0300293 118.74609375 C-25.95245973 115.74810174 -21.85377245 112.78832126 -17.70703125 109.88671875 C-16.96517578 109.35715576 -16.22332031 108.82759277 -15.45898438 108.28198242 C-14.05900361 107.28279233 -12.64786119 106.2990062 -11.22460938 105.33325195 C-9.08180899 103.85539736 -9.08180899 103.85539736 -6.5 101.25 C-5.92866671 98.01619198 -5.92866671 98.01619198 -6.5 95.25 C-6.94577393 95.60078613 -7.39154785 95.95157227 -7.85083008 96.31298828 C-45.60017965 125.96873129 -45.60017965 125.96873129 -52.5 125.25 C-54.4375 124.125 -54.4375 124.125 -55.5 122.25 C-55.34347032 118.4202405 -55.06411215 116.77457608 -52.21484375 114.125 C-50.36149199 112.87379206 -48.50732297 111.62379387 -46.65234375 110.375 C-44.16046043 108.36957132 -44.16046043 108.36957132 -44.19140625 105 C-44.29324219 104.0925 -44.39507812 103.185 -44.5 102.25 C-45.985 103.24 -45.985 103.24 -47.5 104.25 C-50.5625 104.0625 -50.5625 104.0625 -53.5 103.25 C-55.5 100.25 -55.5 100.25 -55.6875 97.5 C-53.86691202 92.51733816 -49.92770509 89.99598958 -45.5 87.25 C-44.84 87.25 -44.18 87.25 -43.5 87.25 C-43.995 84.28 -43.995 84.28 -44.5 81.25 C-45.49 81.745 -45.49 81.745 -46.5 82.25 C-51.73298969 82.69536082 -51.73298969 82.69536082 -54.4375 81.125 C-56.07164267 78.24121881 -55.34017605 76.38405207 -54.5 73.25 C-52.6640625 71.1875 -52.6640625 71.1875 -50.125 69.25 C-49.12984375 68.48171875 -48.1346875 67.7134375 -47.109375 66.921875 C-45.90809866 66.02875809 -44.70480969 65.13834468 -43.5 64.25 C-42.80455078 63.73373047 -42.10910156 63.21746094 -41.39257812 62.68554688 C-38.24639493 60.35251424 -35.09559346 58.02620248 -31.93237305 55.71630859 C-25.44861208 50.9806676 -19.06969184 46.1204673 -12.75537109 41.16113281 C-12.09230957 40.64647461 -11.42924805 40.13181641 -10.74609375 39.6015625 C-10.16529053 39.14604004 -9.5844873 38.69051758 -8.98608398 38.22119141 C-7.5 37.25 -7.5 37.25 -5.5 37.25 C-5.995 34.28 -5.995 34.28 -6.5 31.25 C-9.23164976 33.24662374 -11.95977682 35.24801602 -14.6875 37.25 C-15.53014404 37.86633301 -16.37278809 38.48266602 -17.2409668 39.11767578 C-21.96277146 42.58712858 -26.62673286 46.11222982 -31.2265625 49.7421875 C-32.15960205 50.47308594 -33.0926416 51.20398438 -34.05395508 51.95703125 C-35.86789833 53.38262785 -37.67276822 54.81985941 -39.4675293 56.26953125 C-40.71530151 57.24599609 -40.71530151 57.24599609 -41.98828125 58.2421875 C-43.07943237 59.11399658 -43.07943237 59.11399658 -44.19262695 60.00341797 C-47.14623938 61.59913747 -49.18996504 61.58757859 -52.5 61.25 C-55.08526043 59.08171706 -55.45253667 57.78396241 -55.75 54.4375 C-53.8281922 49.53689011 -49.90056074 46.9791551 -45.5 44.25 C-44.84 44.25 -44.18 44.25 -43.5 44.25 C-43.53480469 43.20199219 -43.56960937 42.15398438 -43.60546875 41.07421875 C-43.63360937 39.69532853 -43.66090924 38.31642098 -43.6875 36.9375 C-43.71263672 36.24720703 -43.73777344 35.55691406 -43.76367188 34.84570312 C-43.83753944 29.74884147 -43.83753944 29.74884147 -42.17578125 27.29296875 C-39.5446616 25.65541876 -37.51736078 25.8728299 -34.5 26.25 C-31.68577374 28.1908457 -31.22745437 30.01983566 -30.5 33.25 C-29.87955811 32.77578613 -29.25911621 32.30157227 -28.61987305 31.81298828 C-25.80980363 29.66604579 -22.99866509 27.52050761 -20.1875 25.375 C-19.21103516 24.62863281 -18.23457031 23.88226563 -17.22851562 23.11328125 C-16.29072266 22.39785156 -15.35292969 21.68242188 -14.38671875 20.9453125 C-13.09060669 19.9555542 -13.09060669 19.9555542 -11.76831055 18.94580078 C-10.05023789 17.66136071 -8.28485163 16.43990109 -6.5 15.25 C-5.98913139 12.19870277 -5.98913139 12.19870277 -5.9375 8.75 C-5.63277351 0.40234096 -5.63277351 0.40234096 0 0 Z M-10.2890625 54.13671875 C-11.06636719 54.74580078 -11.84367187 55.35488281 -12.64453125 55.98242188 C-13.87236328 56.95018555 -13.87236328 56.95018555 -15.125 57.9375 C-16.72027585 59.19277784 -18.31661557 60.44670495 -19.9140625 61.69921875 C-20.68580811 62.30660889 -21.45755371 62.91399902 -22.25268555 63.53979492 C-24.30821956 65.10405519 -26.40812918 66.53992149 -28.55859375 67.96875 C-29.52925781 68.7215625 -30.49992187 69.474375 -31.5 70.25 C-32.08560449 73.96158857 -32.08560449 73.96158857 -31.5 77.25 C-28.43678139 75.33876104 -25.46713445 73.3070159 -22.5 71.25 C-21.80874023 70.77240234 -21.11748047 70.29480469 -20.40527344 69.80273438 C-18.06301526 68.16525299 -15.74915447 66.49285156 -13.4375 64.8125 C-12.662854 64.27536377 -11.88820801 63.73822754 -11.09008789 63.18481445 C-9.00146084 61.63972923 -7.18596649 60.22804158 -5.5 58.25 C-4.83412097 54.47103224 -4.83412097 54.47103224 -5.5 51.25 C-7.39285061 51.25 -8.86852466 53.01793552 -10.2890625 54.13671875 Z M5.5 51.25 C4.78610676 54.44622776 4.78610676 54.44622776 5.5 58.25 C7.96538905 61.11238465 10.93540719 63.18943616 14 65.375 C15.18722656 66.26638672 15.18722656 66.26638672 16.3984375 67.17578125 C21.27955445 70.80061073 26.30593373 74.09305605 31.5 77.25 C32.12088319 74.33984812 32.35190539 73.03853097 31.5 70.25 C28.47740714 67.00151386 24.92777348 64.55139774 21.3125 62 C19.87293945 60.94039062 19.87293945 60.94039062 18.40429688 59.859375 C14.20259663 56.78878991 9.99243911 53.88143654 5.5 51.25 Z M5.5 73.25 C5.11308895 76.07126236 5.11308895 76.07126236 5.5 79.25 C7.39718366 81.5874099 7.39718366 81.5874099 10.125 83.5 C11.115 84.25667969 12.105 85.01335937 13.125 85.79296875 C14.24828933 86.61432381 15.37338901 87.43320703 16.5 88.25 C17.12003906 88.70584473 17.74007812 89.16168945 18.37890625 89.63134766 C24.59031376 95.06739819 24.59031376 95.06739819 31.5 98.25 C31.88691105 95.42873764 31.88691105 95.42873764 31.5 92.25 C29.60281634 89.9125901 29.60281634 89.9125901 26.875 88 C25.885 87.24332031 24.895 86.48664063 23.875 85.70703125 C22.75171067 84.88567619 21.62661099 84.06679297 20.5 83.25 C19.87996094 82.79415527 19.25992188 82.33831055 18.62109375 81.86865234 C12.40968624 76.43260181 12.40968624 76.43260181 5.5 73.25 Z M-10.54296875 76.13671875 C-11.36990234 76.74580078 -12.19683594 77.35488281 -13.04882812 77.98242188 C-13.91958984 78.62759766 -14.79035156 79.27277344 -15.6875 79.9375 C-16.53892578 80.56333984 -17.39035156 81.18917969 -18.26757812 81.83398438 C-20.69066118 83.62365515 -23.09938095 85.43033491 -25.5 87.25 C-26.13969727 87.73057861 -26.77939453 88.21115723 -27.43847656 88.70629883 C-29.2668606 90.10030641 -29.2668606 90.10030641 -31.5 92.25 C-32.00265692 95.46160696 -32.00265692 95.46160696 -31.5 98.25 C-28.41228941 96.81446623 -25.78684356 95.09553023 -23.05859375 93.0625 C-21.81239258 92.13824219 -21.81239258 92.13824219 -20.54101562 91.1953125 C-19.68185547 90.55335937 -18.82269531 89.91140625 -17.9375 89.25 C-16.22827615 87.97861318 -14.51865738 86.70775706 -12.80859375 85.4375 C-12.05376709 84.87417969 -11.29894043 84.31085938 -10.52124023 83.73046875 C-8.87829748 82.52708611 -7.19448236 81.37965491 -5.5 80.25 C-5.24984127 76.66642759 -5.24984127 76.66642759 -5.5 73.25 C-7.43269347 73.25 -9.05677557 75.04128571 -10.54296875 76.13671875 Z " fill="#9B2034" transform="translate(95.5,16.75)"/>
<path d="M0 0 C20.45553063 16.71494127 33.61962 39.18373387 36.71875 65.5859375 C38.8623833 91.60726392 32.00305588 116.88321578 15 137 C13.99839844 138.22009766 13.99839844 138.22009766 12.9765625 139.46484375 C7.35966473 146.04492797 1.12250519 151.11680292 -6 156 C-6.80050781 156.55558594 -7.60101563 157.11117187 -8.42578125 157.68359375 C-28.34133512 170.57012861 -54.16699898 174.26585831 -77.26220703 169.86816406 C-102.94346495 164.20853707 -124.65640108 149.70309174 -139.18359375 127.69140625 C-152.70408656 105.71431098 -157.19342246 80.33843485 -152 55 C-145.94555672 29.99362291 -131.49372111 8.73241329 -109.6875 -5.25 C-75.30986561 -25.31036078 -31.96884704 -24.69528103 0 0 Z M-118 17 C-119.16015625 18.14082031 -119.16015625 18.14082031 -120.34375 19.3046875 C-136.64607441 36.33280033 -142.75169947 58.28467755 -142.3046875 81.38671875 C-141.39767462 103.49609463 -130.59953148 123.34738049 -114.83203125 138.58203125 C-100.70678149 150.64207208 -82.62968215 158.75802119 -64 160 C-63.23300781 160.0515625 -62.46601562 160.103125 -61.67578125 160.15625 C-38.34570856 160.99320328 -16.96364119 151.44559064 0.15625 136.0625 C15.89285644 121.05219847 24.7460809 100.41521949 25.46875 78.83300781 C25.74268032 53.99951205 16.93768185 33.43696044 -0.125 15.375 C-16.4378219 -0.37608561 -37.98081339 -8.59773201 -60.65917969 -8.3515625 C-82.92831076 -7.62175939 -102.23313959 1.48909512 -118 17 Z " fill="#9B2034" transform="translate(154,19)"/>
<path d="M0 0 C0.66 0.66 1.32 1.32 2 2 C1.625 4.625 1.625 4.625 1 7 C3.475 7.99 3.475 7.99 6 9 C6 10.65 6 12.3 6 14 C-2.42857143 16.28571429 -2.42857143 16.28571429 -7 16 C-7 16.66 -7 17.32 -7 18 C-6.38511719 17.94199219 -5.77023437 17.88398438 -5.13671875 17.82421875 C-2.67519489 17.68681311 -0.44072452 17.63584217 2 18 C4 20.4375 4 20.4375 5 23 C5.33 23.33 5.66 23.66 6 24 C6.38383563 28.98986315 6.26854528 32.11860248 3 36 C-0.48081247 38.5670992 -3.8907317 40.6302439 -8 42 C-7.42894531 41.9278125 -6.85789062 41.855625 -6.26953125 41.78125 C0.80270573 40.97170936 7.88419033 40.63508668 15 41 C16 42 16 42 16.25 45.4375 C16.1675 46.613125 16.085 47.78875 16 49 C12.69711664 51.20192224 11.72537273 51.23959968 7.89453125 51.1953125 C6.91162109 51.18886719 5.92871094 51.18242188 4.91601562 51.17578125 C3.89185547 51.15902344 2.86769531 51.14226563 1.8125 51.125 C0.77673828 51.11597656 -0.25902344 51.10695312 -1.32617188 51.09765625 C-3.88434685 51.0740786 -6.44205748 51.0411703 -9 51 C-9.33 51.99 -9.66 52.98 -10 54 C-8.453125 53.505 -8.453125 53.505 -6.875 53 C-3.51573291 52.0284808 -0.50893798 51.82883229 3 52 C4.38125018 54.76250036 4.19079306 56.94731099 4 60 C1.22957891 62.77042109 -0.76533805 62.39796106 -4.625 62.625 C-5.81351562 62.69976562 -7.00203125 62.77453125 -8.2265625 62.8515625 C-9.14179688 62.90054688 -10.05703125 62.94953125 -11 63 C-10.979375 64.0725 -10.95875 65.145 -10.9375 66.25 C-10.9857984 69.14790424 -11.13155885 71.28612141 -12 74 C-15.465 73.505 -15.465 73.505 -19 73 C-19 70.36 -19 67.72 -19 65 C-19.845625 65.350625 -20.69125 65.70125 -21.5625 66.0625 C-25.49699444 67.13554394 -28.04988208 66.91156567 -32 66 C-32.66 65.34 -33.32 64.68 -34 64 C-34 62.125 -34 62.125 -33 60 C-28.67868608 56.52186929 -24.17812956 54.78556192 -19 53 C-23.47881256 53.55492664 -23.47881256 53.55492664 -27.875 54.53125 C-30.54203152 55.11956578 -33.02161819 55.09498074 -35.75 55.0625 C-36.73484375 55.05347656 -37.7196875 55.04445312 -38.734375 55.03515625 C-39.48203125 55.02355469 -40.2296875 55.01195312 -41 55 C-41 53.35 -41 51.7 -41 50 C-39.68 49.34 -38.36 48.68 -37 48 C-37.66 47.01 -38.32 46.02 -39 45 C-39.44351586 40.93443799 -39.66104524 38.85935881 -37.125 35.5625 C-35 34 -35 34 -33 34 C-33.2475 32.7625 -33.495 31.525 -33.75 30.25 C-34.19783465 26.32972441 -34.19783465 26.32972441 -32.6875 23.8125 C-28.67269188 21.10483871 -24.3841498 19.04147434 -20 17 C-20.90492188 17.34224609 -20.90492188 17.34224609 -21.828125 17.69140625 C-23.02695313 18.12259766 -23.02695313 18.12259766 -24.25 18.5625 C-25.03890625 18.85253906 -25.8278125 19.14257812 -26.640625 19.44140625 C-29.19103452 20.04522837 -30.55322229 19.8473932 -33 19 C-33.125 13.25 -33.125 13.25 -32 11 C-30.08227539 10.5769043 -30.08227539 10.5769043 -27.59765625 10.32421875 C-26.70755859 10.21787109 -25.81746094 10.11152344 -24.90039062 10.00195312 C-23.01357222 9.79288378 -21.12549142 9.59489998 -19.23632812 9.40820312 C-16.72535069 9.0977352 -14.40722476 8.78199074 -12 8 C-10.39463369 5.61475491 -10.39463369 5.61475491 -10 3 C-6.68351187 0.40059038 -4.20754732 -0.56858748 0 0 Z M-9 8 C-9 8.33 -9 8.66 -9 9 C-6.36 9 -3.72 9 -1 9 C-1 8.67 -1 8.34 -1 8 C-3.64 8 -6.28 8 -9 8 Z M-23.1875 24.5 C-24.115625 25.325 -25.04375 26.15 -26 27 C-25.01 27.495 -25.01 27.495 -24 28 C-19.85329961 25.62370911 -19.85329961 25.62370911 -17 22 C-20.3866371 22 -20.77669287 22.35706033 -23.1875 24.5 Z M-7 23 C-8.97094808 27.92737019 -9.1799928 31.78020872 -9 37 C-5.42895561 35.12050295 -3.45255699 33.82946843 -2 30 C-2.99 30 -3.98 30 -5 30 C-5 27.69 -5 25.38 -5 23 C-5.66 23 -6.32 23 -7 23 Z M-24 35 C-24.8407583 38.09164919 -24.9047253 40.76066015 -25 44 C-22.36 43.01 -19.72 42.02 -17 41 C-17 37.7 -17 34.4 -17 31 C-19.93262502 31 -21.93615257 33.23713032 -24 35 Z M-32 39 C-31.67 39.99 -31.34 40.98 -31 42 C-30.34 40.68 -29.68 39.36 -29 38 C-30.2236068 37.9254644 -30.2236068 37.9254644 -32 39 Z " fill="#9B2034" transform="translate(276,11)"/>
<path d="M0 0 C0.66 1.32 1.32 2.64 2 4 C0.35 5.65 -1.3 7.3 -3 9 C4.73280696 9.90216081 8.70618011 7.84884234 15.10546875 3.53125 C18.35765924 1.81079295 20.37546012 1.69929743 24 2 C24.93423645 5.01031744 25.04449911 5.86650268 24 9 C24.61875 9.12375 25.2375 9.2475 25.875 9.375 C28 10 28 10 30 12 C30.0625 14.4375 30.0625 14.4375 29 17 C26.68745988 18.04718798 24.3514852 19.04346365 22 20 C19.58855519 22.53099205 19.58855519 22.53099205 18 25 C16.35 24.67 14.7 24.34 13 24 C12.75 21.1875 12.75 21.1875 13 18 C15 16.125 15 16.125 17 15 C16.505 12.525 16.505 12.525 16 10 C8.37963076 13.10459487 3.56248333 18.02716954 -2 24 C-1.01 25.65 -0.02 27.3 1 29 C-2.48720616 33.3590077 -5.72760915 33.94552183 -11 35 C-8.92744469 36.37282422 -8.92744469 36.37282422 -6 37 C-3.1910646 36.0236164 -0.75945534 35.00965189 1.875 33.6875 C6.93292853 31.20634224 11.26229774 29.33210838 17 29 C19.37633793 30.13650944 21.14441029 31.14441029 23 33 C23.38859529 38.05173874 22.969967 40.88773801 20 45 C19.34 45.99 18.68 46.98 18 48 C15.4375 48.125 15.4375 48.125 13 48 C11.67254834 49.11258591 11.67254834 49.11258591 11.75 51.9375 C11.8325 52.948125 11.915 53.95875 12 55 C16.30212626 57.86808417 19.14191136 56.63733668 24.046875 55.68359375 C27.55101934 54.87244923 30.12496742 54.21156353 33 52 C33.93761826 49.93307264 34.60795904 47.94242293 35.1640625 45.7421875 C36 44 36 44 37.9609375 43.1953125 C40 43 40 43 42 44 C43.20607201 48.30740005 43.30082933 52.06212032 41.9375 56.3125 C37.26415306 62.79488446 30.51880305 64.5219447 23 66 C17.37579679 66.72507149 12.96327172 65.80939909 8 63 C3.92355323 59.14475577 2.11469494 55.7777715 1.75 50.125 C1.78499818 46.31719852 2.71604793 44.10617482 5 41 C5.495 40.01 5.495 40.01 6 39 C3.84442312 40.15167937 1.70845056 41.32715441 -0.4140625 42.5390625 C-2.07136668 43.47536426 -3.75300649 44.370527 -5.4609375 45.2109375 C-10.70677512 48.08656277 -12.59250329 50.54110479 -14.3125 56.3125 C-14.73208984 57.99859375 -14.73208984 57.99859375 -15.16015625 59.71875 C-16.27330113 64.06778114 -18.04448452 67.97455058 -20 72 C-22.74086056 72.22223194 -24.43963721 72.34781139 -26.8125 70.875 C-28.53501881 68.15523346 -28.32855599 66.15413751 -28 63 C-27.34 62.01 -26.68 61.02 -26 60 C-24.68 60 -23.36 60 -22 60 C-21.67 59.34 -21.34 58.68 -21 58 C-21.99 57.67 -22.98 57.34 -24 57 C-26.21152754 51.58175752 -26.00276791 47.71577709 -25 42 C-25.33 42 -25.66 42 -26 42 C-27.33568021 41.67619874 -28.66923011 41.34342449 -30 41 C-29.3986114 37.34292022 -29.06580486 37.05046133 -25.8671875 34.59765625 C-24.5440323 33.74079369 -23.21290825 32.8961394 -21.875 32.0625 C-20.55913971 31.22123359 -19.24403236 30.37878832 -17.9296875 29.53515625 C-17.28225586 29.12281738 -16.63482422 28.71047852 -15.96777344 28.28564453 C-12.90746805 26.28619439 -9.95795141 24.1473959 -7 22 C-9.83967231 22 -12.23735711 22.40267181 -15 23 C-17.18268133 20.73001142 -17.9769032 19.49658127 -18.125 16.3125 C-15.5830434 8.82785001 -8.69389813 -0.99358836 0 0 Z M-14 35 C-14 35.99 -14 36.98 -14 38 C-13.34 37.01 -12.68 36.02 -12 35 C-12.66 35 -13.32 35 -14 35 Z M14 35 C15.485 35.99 15.485 35.99 17 37 C17 36.34 17 35.68 17 35 C16.01 35 15.02 35 14 35 Z M-16 38 C-15 40 -15 40 -15 40 Z M-17 41 C-16 43 -16 43 -16 43 Z M-18 43 C-18.33 44.32 -18.66 45.64 -19 47 C-18.34 46.67 -17.68 46.34 -17 46 C-17.33 45.01 -17.66 44.02 -18 43 Z " fill="#9B2034" transform="translate(472,14)"/>
<path d="M0 0 C0.6875 2.3125 0.6875 2.3125 1 5 C-0.0625 6.75 -0.0625 6.75 -2 8 C-5.1875 8.6875 -5.1875 8.6875 -8 9 C-7.649375 9.763125 -7.29875 10.52625 -6.9375 11.3125 C-6 14 -6 14 -7 17 C-6.319375 16.67 -5.63875 16.34 -4.9375 16 C-1.44174101 14.80995439 1.32937859 14.72297197 5 15 C7 17 7 17 7.3125 20.6875 C7.15113356 26.25464222 5.38264002 30.38691998 1.75 34.625 C-0.8983244 36.91218925 -3.58933862 38.83330187 -6.546875 40.69140625 C-8.77934546 42.70182991 -8.91612808 45.04956954 -9.17358398 47.96704102 C-9.19751221 48.63920654 -9.22144043 49.31137207 -9.24609375 50.00390625 C-9.27896484 50.74447266 -9.31183594 51.48503906 -9.34570312 52.24804688 C-9.40704981 53.79476637 -9.46432222 55.34165267 -9.51757812 56.88867188 C-9.69457235 60.71909412 -9.82976394 62.7446459 -12 66 C-13.65 65.67 -15.3 65.34 -17 65 C-18.12256971 59.39658479 -18.32721317 53.8181699 -18.5625 48.125 C-18.60568359 47.15046875 -18.64886719 46.1759375 -18.69335938 45.171875 C-18.79882274 42.78137198 -18.90094175 40.39077556 -19 38 C-19.45117188 38.49886719 -19.90234375 38.99773438 -20.3671875 39.51171875 C-21.17542969 40.24841797 -21.17542969 40.24841797 -22 41 C-24.125 40.8125 -24.125 40.8125 -26 40 C-28.43994489 35.12011023 -27.68878949 27.37118042 -27 22 C-25.78398032 18.82836657 -24.21482453 16.54369241 -22 14 C-21.34 13.01 -20.68 12.02 -20 11 C-26.71386561 16.94656669 -29.96928695 24.06982084 -32.30859375 32.625 C-33.26150569 35.89827945 -34.5855328 38.90164327 -36 42 C-40.875 41.125 -40.875 41.125 -42 40 C-41.30232558 33.60465116 -41.30232558 33.60465116 -40 31 C-41.32 30.67 -42.64 30.34 -44 30 C-44 35.28 -44 40.56 -44 46 C-48 45 -48 45 -49.6875 42.25 C-54.0975147 31.32996361 -52.05156076 17.13633758 -49.01171875 6.03125 C-47.72152503 3.44089967 -46.51858491 2.41503534 -44 1 C-41.52734375 0.6015625 -41.52734375 0.6015625 -38.9375 0.625 C-37.65166016 0.61339844 -37.65166016 0.61339844 -36.33984375 0.6015625 C-34 1 -34 1 -32.21484375 2.25 C-29.95209929 5.50951614 -30.4934391 9.20079322 -31 13 C-33.08108108 17.54054054 -33.08108108 17.54054054 -36 19 C-35.01 19.33 -34.02 19.66 -33 20 C-32.773125 19.21625 -32.54625 18.4325 -32.3125 17.625 C-27.80348316 5.17152492 -27.80348316 5.17152492 -24.09375 2.76171875 C-21.73021901 1.92677574 -19.47017849 1.42959626 -17 1 C-15.98550781 0.78859375 -14.97101563 0.5771875 -13.92578125 0.359375 C-8.93803717 -0.5976829 -4.98172209 -1.27270272 0 0 Z M-40 10 C-42.71985778 14.02065933 -45.41091288 18.39755174 -44.625 23.375 C-44.41875 23.91125 -44.2125 24.4475 -44 25 C-39.35677486 20.50655632 -39.23817524 16.13301236 -39 10 C-39.33 10 -39.66 10 -40 10 Z M-18 16 C-17 18 -17 18 -17 18 Z M-19 18 C-18 20 -18 20 -18 20 Z M-8 26 C-7.67 27.65 -7.34 29.3 -7 31 C-4.00675737 29.9024777 -3.15389099 29.32317108 -1.75 26.375 C-1.5025 25.59125 -1.255 24.8075 -1 24 C-3.6465335 24 -5.5808163 24.98139634 -8 26 Z " fill="#9B2034" transform="translate(426,19)"/>
<path d="M0 0 C1.9375 0.6875 1.9375 0.6875 2.9375 2.6875 C5.5775 2.6875 8.2175 2.6875 10.9375 2.6875 C11.4325 5.1625 11.4325 5.1625 11.9375 7.6875 C9.20356274 9.45651823 6.79689063 10.73346845 3.6875 11.75 C0.80131294 12.37464055 0.80131294 12.37464055 -0.0625 14.6875 C0.5975 14.3575 1.2575 14.0275 1.9375 13.6875 C9.40416667 13.33194444 9.40416667 13.33194444 12.9375 15.6875 C13.47014983 21.10277326 13.31618716 24.26025476 9.9375 28.6875 C9.15375 29.739375 8.37 30.79125 7.5625 31.875 C5.01034591 34.60945081 3.47545702 35.67665514 -0.0625 36.6875 C0.123125 37.285625 0.30875 37.88375 0.5 38.5 C0.9375 40.6875 0.9375 40.6875 -0.0625 43.6875 C6.10668339 46.3608128 12.57841545 48.62195241 19.3125 49.0625 C22.9375 49.6875 22.9375 49.6875 25.5 52 C26.9375 54.6875 26.9375 54.6875 26.52734375 56.85546875 C26.33269531 57.46003906 26.13804687 58.06460938 25.9375 58.6875 C16.10176126 60.46115781 7.99419366 58.56371689 -0.30859375 52.96875 C-2.23901347 51.55855475 -4.1499861 50.12188543 -6.0625 48.6875 C-6.0625 54.2975 -6.0625 59.9075 -6.0625 65.6875 C-8.0425 66.1825 -8.0425 66.1825 -10.0625 66.6875 C-11.5475 65.6975 -11.5475 65.6975 -13.0625 64.6875 C-13.35546875 62.0859375 -13.35546875 62.0859375 -13.25 59.0625 C-13.22292969 58.05960938 -13.19585937 57.05671875 -13.16796875 56.0234375 C-13.13316406 55.25257812 -13.09835937 54.48171875 -13.0625 53.6875 C-13.784375 54.409375 -14.50625 55.13125 -15.25 55.875 C-16.178125 56.803125 -17.10625 57.73125 -18.0625 58.6875 C-18.825625 59.615625 -19.58875 60.54375 -20.375 61.5 C-24.13700528 64.56209732 -26.31830313 64.08955058 -31.0625 63.6875 C-30.7170369 57.74112445 -29.3480519 55.26782011 -25 51.25 C-24.08089844 50.38503906 -23.16179687 49.52007812 -22.21484375 48.62890625 C-21.50457031 47.98824219 -20.79429687 47.34757812 -20.0625 46.6875 C-20.69671875 46.42839844 -21.3309375 46.16929688 -21.984375 45.90234375 C-24.0625 44.6875 -24.0625 44.6875 -25.3125 41.25 C-26.82403038 33.77405243 -27.39492794 26.27279046 -23.0625 19.6875 C-22.7325 19.3575 -22.4025 19.0275 -22.0625 18.6875 C-24.5375 17.6975 -24.5375 17.6975 -27.0625 16.6875 C-27.4302114 11.17182905 -27.4302114 11.17182905 -25.81079102 9.03881836 C-23.74914686 7.44529784 -22.47426421 7.17844489 -19.90234375 6.87890625 C-19.10892578 6.77126953 -18.31550781 6.66363281 -17.49804688 6.55273438 C-15.82929354 6.35050078 -14.16000951 6.15260032 -12.49023438 5.95898438 C-11.69810547 5.85005859 -10.90597656 5.74113281 -10.08984375 5.62890625 C-9.00304321 5.50044312 -9.00304321 5.50044312 -7.89428711 5.36938477 C-5.86456254 4.83791328 -5.86456254 4.83791328 -4.93579102 2.69116211 C-4.64760498 2.02995361 -4.35941895 1.36874512 -4.0625 0.6875 C-2.0625 -0.3125 -2.0625 -0.3125 0 0 Z M-16.3125 14.1875 C-17.20453125 14.6515625 -18.0965625 15.115625 -19.015625 15.59375 C-19.69109375 15.9546875 -20.3665625 16.315625 -21.0625 16.6875 C-17.86187313 18.28781344 -15.33978194 16.71923691 -12.0625 15.6875 C-12.7225 17.0075 -13.3825 18.3275 -14.0625 19.6875 C-10.40933329 18.43773244 -9.28184164 18.01651247 -7.0625 14.6875 C-7.0625 13.6975 -7.0625 12.7075 -7.0625 11.6875 C-11.22661215 11.6875 -12.72642253 12.30009081 -16.3125 14.1875 Z M-4.0625 22.6875 C-3.77375 23.265 -3.485 23.8425 -3.1875 24.4375 C-2.14583333 26.52083333 -1.10416667 28.60416667 -0.0625 30.6875 C3.18466062 27.19966486 3.18466062 27.19966486 3.9375 22.6875 C1.2975 22.6875 -1.3425 22.6875 -4.0625 22.6875 Z M-14.0625 25.6875 C-17.26945267 30.59814627 -18.76038995 33.63912041 -18.0625 39.6875 C-17.0725 41.1725 -17.0725 41.1725 -16.0625 42.6875 C-15.7325 41.0375 -15.4025 39.3875 -15.0625 37.6875 C-14.4025 37.6875 -13.7425 37.6875 -13.0625 37.6875 C-13.07410156 36.98882812 -13.08570313 36.29015625 -13.09765625 35.5703125 C-13.10667969 34.66023438 -13.11570312 33.75015625 -13.125 32.8125 C-13.13660156 31.90757813 -13.14820313 31.00265625 -13.16015625 30.0703125 C-13.0625 27.6875 -13.0625 27.6875 -12.0625 25.6875 C-12.7225 25.6875 -13.3825 25.6875 -14.0625 25.6875 Z M-2.0625 30.6875 C-1.0625 32.6875 -1.0625 32.6875 -1.0625 32.6875 Z M-18.0625 42.6875 C-17.0625 44.6875 -17.0625 44.6875 -17.0625 44.6875 Z " fill="#9B2034" transform="translate(337.0625,15.3125)"/>
<path d="M0 0 C0.78375 0.04125 1.5675 0.0825 2.375 0.125 C1.85231534 2.88776177 1.26630413 5.4510876 0.375 8.125 C2.25380872 8.07731597 2.25380872 8.07731597 4.375 7.125 C4.973125 6.114375 5.57125 5.10375 6.1875 4.0625 C6.909375 3.093125 7.63125 2.12375 8.375 1.125 C12.125 0.75 12.125 0.75 15.375 1.125 C19.15531384 9.8953281 19.15531384 9.8953281 17.375 15.125 C15.8415164 17.60371283 14.17366182 19.81902331 12.375 22.125 C12.97828125 22.09019531 13.5815625 22.05539063 14.203125 22.01953125 C20.8123928 21.79566895 20.8123928 21.79566895 23.9375 23.625 C24.411875 24.12 24.88625 24.615 25.375 25.125 C24.5 32 24.5 32 23.375 33.125 C20.5 33.375 20.5 33.375 17.375 33.125 C16.89160156 32.63257813 16.40820312 32.14015625 15.91015625 31.6328125 C14.29106677 29.72840913 14.29106677 29.72840913 10.6875 29.75 C-0.70464526 30.15686233 -14.08330743 32.81320996 -24.625 37.125 C-25.69046953 40.3214086 -25.69927838 42.78247276 -25.625 46.125 C-27.4375 46.8125 -27.4375 46.8125 -29.625 47.125 C-31.375 46.125 -31.375 46.125 -32.625 44.125 C-33.32852 38.26233335 -31.67965222 33.51846208 -29.625 28.125 C-27.975 27.795 -26.325 27.465 -24.625 27.125 C-24.521875 25.84625 -24.41875 24.5675 -24.3125 23.25 C-22.71962769 9.9620915 -22.71962769 9.9620915 -18.71875 6.453125 C-16.5625 5.125 -16.5625 5.125 -14.46484375 4.0625 C-12.44833457 3.15433146 -12.44833457 3.15433146 -10.625 1.125 C-8.625 1.5 -8.625 1.5 -6.625 2.125 C-5.965 2.125 -5.305 2.125 -4.625 2.125 C-2.625 0.125 -2.625 0.125 0 0 Z M9.375 8.125 C7.89 10.105 7.89 10.105 6.375 12.125 C7.365 12.125 8.355 12.125 9.375 12.125 C9.375 12.785 9.375 13.445 9.375 14.125 C10.365 14.125 11.355 14.125 12.375 14.125 C12.375 12.475 12.375 10.825 12.375 9.125 C11.385 8.795 10.395 8.465 9.375 8.125 Z M4.375 13.125 C2.89 18.57 2.89 18.57 1.375 24.125 C2.365 24.125 3.355 24.125 4.375 24.125 C6.41184712 20.05130576 6.4007259 17.53562136 5.375 13.125 C5.045 13.125 4.715 13.125 4.375 13.125 Z M-7.625 14.125 C-9.25331762 15.93461577 -9.25331762 15.93461577 -10.625 18.125 C-10.295 19.115 -9.965 20.105 -9.625 21.125 C-8.01592892 18.74887135 -8.01592892 18.74887135 -6.625 16.125 C-6.955 15.465 -7.285 14.805 -7.625 14.125 Z M-18.625 16.125 C-18.625 19.755 -18.625 23.385 -18.625 27.125 C-16.60149676 24.08974514 -16.30375982 22.93073798 -16 19.4375 C-15.92523437 18.62925781 -15.85046875 17.82101563 -15.7734375 16.98828125 C-15.72445312 16.37339844 -15.67546875 15.75851563 -15.625 15.125 C-16.8486068 15.0504644 -16.8486068 15.0504644 -18.625 16.125 Z M-3.625 19.125 C-4.285 20.445 -4.945 21.765 -5.625 23.125 C-4.635 22.795 -3.645 22.465 -2.625 22.125 C-2.955 21.135 -3.285 20.145 -3.625 19.125 Z " fill="#9B2034" transform="translate(637.625,13.875)"/>
<path d="M0 0 C0.41421398 4.22498264 0.53182404 6.29090128 -2.0625 9.75 C-5.3327396 12.25486438 -8.15761444 13.56852303 -12 15 C-11.34 15 -10.68 15 -10 15 C-7.66508361 15.32205743 -5.33157492 15.65458149 -3 16 C-2.25 18.25 -2.25 18.25 -2 21 C-4.24654735 24.06607865 -5.66107215 24.91995368 -9.390625 25.80078125 C-10.66421875 25.96964844 -11.9378125 26.13851562 -13.25 26.3125 C-20.4151552 27.5182451 -24.16833314 29.65132599 -29 35 C-47.41444396 54.2230102 -47.41444396 54.2230102 -56.0625 54.5625 C-59 54 -59 54 -61 52 C-60.9453125 50.05078125 -60.9453125 50.05078125 -60 48 C-57.7421875 46.54296875 -57.7421875 46.54296875 -54.875 45.1875 C-49.24863761 42.30838487 -43.90644979 38.81289957 -41 33 C-42.423125 32.814375 -42.423125 32.814375 -43.875 32.625 C-47 32 -47 32 -49 30 C-49.4375 27.125 -49.4375 27.125 -49 24 C-44.78029063 19.75626951 -40.15295283 18.78122555 -34.52734375 17.578125 C-28.43448047 16.15030249 -24.86077815 13.34418082 -21.0625 8.5 C-15.44530386 1.79097034 -8.78486825 -2.0916353 0 0 Z " fill="#9B2034" transform="translate(582,20)"/>
<path d="M0 0 C0.625 3.0625 0.625 3.0625 1 6 C-0.134375 6.45375 -1.26875 6.9075 -2.4375 7.375 C-6.04721692 8.57095806 -6.04721692 8.57095806 -7 11 C-5.989375 10.67 -4.97875 10.34 -3.9375 10 C-0.2238643 8.94327439 3.12827836 8.69633556 7 9 C9 11 9 11 9.125 13.625 C9.08375 14.40875 9.0425 15.1925 9 16 C6.47524538 17.26237731 4.68799534 17.09856404 1.875 17.0625 C0.96492187 17.05347656 0.05484375 17.04445313 -0.8828125 17.03515625 C-1.93082031 17.01775391 -1.93082031 17.01775391 -3 17 C-2.87625 18.5159375 -2.87625 18.5159375 -2.75 20.0625 C-3.17329206 26.72934998 -6.23162425 30.51674066 -10.875 35 C-13.80936205 37.45718542 -14.48564893 38 -18.4375 38 C-21 37 -21 37 -22 36 C-22.04080783 34.00041636 -22.04254356 31.99954746 -22 30 C-20.906875 29.5875 -19.81375 29.175 -18.6875 28.75 C-15.47685812 27.36845107 -13.71634624 26.14663476 -12 23 C-11.67 21.68 -11.34 20.36 -11 19 C-14.96 20.32 -18.92 21.64 -23 23 C-24.32 21.68 -25.64 20.36 -27 19 C-24.62562163 13.06405408 -19.49746144 11.42383384 -14 9 C-14 8.01 -14 7.02 -14 6 C-14.70125 6.66 -15.4025 7.32 -16.125 8 C-19.44377677 10.30871428 -21.04644974 10.44926708 -25 10 C-26 9 -26 9 -26.3125 6.625 C-26 4 -26 4 -24.3046875 2.41015625 C-18.4936385 -1.1454178 -6.23754929 -3.11877465 0 0 Z " fill="#9B2034" transform="translate(644,48)"/>
<path d="M0 0 C6 0 6 0 8.30078125 2.1171875 C8.96464844 3.02726562 9.62851562 3.93734375 10.3125 4.875 C10.98925781 5.77992187 11.66601562 6.68484375 12.36328125 7.6171875 C14 10 14 10 15 12 C15.66 12 16.32 12 17 12 C18.98556296 8.93264757 20.80941761 5.78890418 22.63671875 2.625 C23.41660156 1.75875 24.19648437 0.8925 25 0 C27.31 0 29.62 0 32 0 C32 10.89 32 21.78 32 33 C30.02 33 28.04 33 26 33 C25.67 26.07 25.34 19.14 25 12 C22.69 14.97 20.38 17.94 18 21 C13 20 13 20 7 12 C6.67 18.93 6.34 25.86 6 33 C4.02 33 2.04 33 0 33 C0 22.11 0 11.22 0 0 Z " fill="#9B2034" transform="translate(631,96)"/>
<path d="M0 0 C6 0 6 0 8.5625 2.34375 C9.366875 3.3853125 10.17125 4.426875 11 5.5 C11.804375 6.5209375 12.60875 7.541875 13.4375 8.59375 C16.29557394 12.39289706 19.14749973 16.1966663 22 20 C22.33 13.4 22.66 6.8 23 0 C24.98 0 26.96 0 29 0 C29 10.89 29 21.78 29 33 C23 33 23 33 21.06542969 31.39526367 C20.25187012 30.29275269 20.25187012 30.29275269 19.421875 29.16796875 C18.81859375 28.36939453 18.2153125 27.57082031 17.59375 26.74804688 C16.9853125 25.90306641 16.376875 25.05808594 15.75 24.1875 C15.12609375 23.35412109 14.5021875 22.52074219 13.859375 21.66210938 C11.49333347 18.4878403 9.19628288 15.29442432 7 12 C6.67 18.93 6.34 25.86 6 33 C4.02 33 2.04 33 0 33 C0 22.11 0 11.22 0 0 Z " fill="#9B2034" transform="translate(274,142)"/>
<path d="M0 0 C6 0 6 0 7.71923828 1.29760742 C8.16509277 1.89420166 8.61094727 2.4907959 9.0703125 3.10546875 C9.57433594 3.75966797 10.07835937 4.41386719 10.59765625 5.08789062 C11.10167969 5.78076172 11.60570312 6.47363281 12.125 7.1875 C12.63675781 7.86103516 13.14851562 8.53457031 13.67578125 9.22851562 C14.6390528 10.49760732 15.59463968 11.77259927 16.53955078 13.05541992 C18.30795816 15.41004459 20.1604325 17.70054062 22 20 C22.33 13.4 22.66 6.8 23 0 C24.98 0 26.96 0 29 0 C29 10.89 29 21.78 29 33 C23 33 23 33 21.1730957 31.59472656 C20.67898193 30.94987305 20.18486816 30.30501953 19.67578125 29.640625 C19.12212891 28.93679687 18.56847656 28.23296875 17.99804688 27.5078125 C17.44181641 26.76273438 16.88558594 26.01765625 16.3125 25.25 C15.46075195 24.15558594 15.46075195 24.15558594 14.59179688 23.0390625 C13.04155782 21.03992655 11.51553492 19.02551384 10 17 C9.01 15.68 8.02 14.36 7 13 C6.67 19.6 6.34 26.2 6 33 C4.02 33 2.04 33 0 33 C0 22.11 0 11.22 0 0 Z " fill="#9B2034" transform="translate(527,96)"/>
<path d="M0 0 C6 0 6 0 7.95043945 1.63647461 C8.49917725 2.38421143 9.04791504 3.13194824 9.61328125 3.90234375 C10.5249707 5.11374023 10.5249707 5.11374023 11.45507812 6.34960938 C12.06802734 7.20361328 12.68097656 8.05761719 13.3125 8.9375 C13.94478516 9.78763672 14.57707031 10.63777344 15.22851562 11.51367188 C16.39340559 13.08059246 17.55024932 14.65354805 18.6965332 16.23413086 C19.8813141 17.93097116 19.8813141 17.93097116 21 19 C21.33 12.73 21.66 6.46 22 0 C23.98 0 25.96 0 28 0 C28 10.89 28 21.78 28 33 C23 33 23 33 20.53515625 30.65625 C19.6955728 29.61638678 18.87174102 28.56364696 18.0625 27.5 C17.24910156 26.4790625 16.43570312 25.458125 15.59765625 24.40625 C12.71045596 20.62032721 9.85672702 16.80896936 7 13 C6.67 19.6 6.34 26.2 6 33 C4.02 33 2.04 33 0 33 C0 22.11 0 11.22 0 0 Z " fill="#9B2034" transform="translate(448,96)"/>
<path d="M0 0 C4.59850038 4.17073291 6.86434014 8.70051472 7.1875 14.9375 C6.86434014 21.17448528 4.59850038 25.70426709 0 29.875 C-5.39763306 32.42105333 -10.05450129 32.71001709 -15.9375 32 C-20.57586462 29.85260897 -23.48703549 26.66771523 -26.3125 22.4375 C-27.97405676 17.42418218 -27.76362764 12.81462649 -26.125 7.8125 C-23.52652285 2.97395635 -21.16450907 0.2210423 -16.0625 -1.9375 C-10.12980224 -2.92628296 -5.46462567 -2.57765362 0 0 Z M-17.3125 6.4375 C-19.94091505 9.25365898 -21.13250922 11.56769813 -21.3125 15.4375 C-19.42374152 21.2454202 -19.42374152 21.2454202 -15.3125 25.4375 C-11.03723227 26.40288304 -8.59376224 26.9215324 -4.5 25.375 C-1.289459 22.53137797 0.52833787 19.82493199 0.8203125 15.4453125 C0.5739128 11.60437594 -0.14172998 9.67356444 -2.4375 6.5 C-7.70035231 2.72447552 -12.20453856 2.32275328 -17.3125 6.4375 Z " fill="#9B2034" transform="translate(587.3125,97.5625)"/>
<path d="M0 0 C3.031875 -0.061875 6.06375 -0.12375 9.1875 -0.1875 C10.60712036 -0.22846802 10.60712036 -0.22846802 12.05541992 -0.27026367 C16.86383987 -0.31773029 20.10983025 -0.16462222 24 3 C26.32402951 6.20937409 26.47570691 9.11506021 26 13 C24.125 15.875 24.125 15.875 22 18 C21.34 18 20.68 18 20 18 C20.48210938 18.74765625 20.96421875 19.4953125 21.4609375 20.265625 C22.40839844 21.74289063 22.40839844 21.74289063 23.375 23.25 C24.00148438 24.22453125 24.62796875 25.1990625 25.2734375 26.203125 C26.65134852 28.43521615 27.88312642 30.63087422 29 33 C24.14519284 34.14749987 24.14519284 34.14749987 21 33 C18.82642099 30.32594986 17.0216084 27.69927687 15.32250977 24.7121582 C14.16740007 22.67974914 14.16740007 22.67974914 12 20 C10.02 19.67 8.04 19.34 6 19 C6 23.62 6 28.24 6 33 C4.02 33 2.04 33 0 33 C0 22.11 0 11.22 0 0 Z M6 6 C6 8.64 6 11.28 6 14 C7.77007714 14.08114106 9.54122098 14.13925505 11.3125 14.1875 C12.29863281 14.22230469 13.28476562 14.25710937 14.30078125 14.29296875 C17.04574389 14.24278108 17.04574389 14.24278108 18.85546875 12.48828125 C19.23316406 11.99714844 19.61085938 11.50601563 20 11 C19.34 9.35 18.68 7.7 18 6 C14.04 6 10.08 6 6 6 Z " fill="#9B2034" transform="translate(599,96)"/>
<path d="M0 0 C3.196875 -0.0825 6.39375 -0.165 9.6875 -0.25 C10.68612061 -0.28641602 11.68474121 -0.32283203 12.71362305 -0.36035156 C16.98285395 -0.41369006 19.36670269 -0.38848656 23.08203125 1.890625 C25.06629073 4.0729063 25.97509738 5.07860305 26.0546875 8.0234375 C25.99539063 8.79945313 25.93609375 9.57546875 25.875 10.375 C25.83117187 11.14585937 25.78734375 11.91671875 25.7421875 12.7109375 C24.69877257 15.92904881 22.71274237 17.10194703 20 19 C20.6496875 19.84304687 21.299375 20.68609375 21.96875 21.5546875 C22.81275117 22.66126681 23.65648749 23.76804815 24.5 24.875 C24.92925781 25.43058594 25.35851562 25.98617187 25.80078125 26.55859375 C29 30.7734375 29 30.7734375 29 33 C25.81640625 33.40234375 25.81640625 33.40234375 22 33 C19.94783111 30.83331948 18.50828406 29.03383243 16.9375 26.5625 C15.39508367 24.1746483 13.87210899 22.17882236 12 20 C10.02 19.67 8.04 19.34 6 19 C6 23.62 6 28.24 6 33 C4.02 33 2.04 33 0 33 C0 22.11 0 11.22 0 0 Z M6 5 C6 7.97 6 10.94 6 14 C7.58246707 14.08153933 9.16616273 14.13943557 10.75 14.1875 C11.63171875 14.22230469 12.5134375 14.25710937 13.421875 14.29296875 C16.44671583 13.94923684 17.75583602 12.99772541 20 11 C19.72382467 9.05925139 19.72382467 9.05925139 19 7 C15.68629 4.79086 14.6553979 4.77518447 10.8125 4.875 C9.46091797 4.90207031 9.46091797 4.90207031 8.08203125 4.9296875 C7.05142578 4.96449219 7.05142578 4.96449219 6 5 Z " fill="#9B2034" transform="translate(383,142)"/>
<path d="M0 0 C7.92 0 15.84 0 24 0 C24 1.65 24 3.3 24 5 C18.06 5 12.12 5 6 5 C6 7.31 6 9.62 6 12 C10.95 12 15.9 12 21 12 C21 13.98 21 15.96 21 18 C16.05 18 11.1 18 6 18 C6 20.97 6 23.94 6 27 C12.27 27 18.54 27 25 27 C25 28.98 25 30.96 25 33 C16.75 33 8.5 33 0 33 C0 22.11 0 11.22 0 0 Z " fill="#9B2034" transform="translate(354,142)"/>
<path d="M0 0 C7.92 0 15.84 0 24 0 C24 1.98 24 3.96 24 6 C18.06 6 12.12 6 6 6 C6 8.31 6 10.62 6 13 C10.62 13 15.24 13 20 13 C20 14.65 20 16.3 20 18 C15.38 18 10.76 18 6 18 C6 20.97 6 23.94 6 27 C11.94 27 17.88 27 24 27 C24 28.98 24 30.96 24 33 C16.08 33 8.16 33 0 33 C0 22.11 0 11.22 0 0 Z " fill="#9B2034" transform="translate(241,96)"/>
<path d="M0 0 C0.78375 0.495 1.5675 0.99 2.375 1.5 C2.375 3.48 2.375 5.46 2.375 7.5 C1.385 7.17 0.395 6.84 -0.625 6.5 C-4.71094833 5.3134874 -8.38842394 5.35134821 -12.625 5.5 C-12.955 6.82 -13.285 8.14 -13.625 9.5 C-12.73296875 9.81453125 -11.8409375 10.1290625 -10.921875 10.453125 C-9.16617187 11.09507812 -9.16617187 11.09507812 -7.375 11.75 C-5.63476562 12.37648437 -5.63476562 12.37648437 -3.859375 13.015625 C-0.63173055 14.4969111 1.15320611 15.76262236 3.375 18.5 C4.35218613 21.78055344 4.52524358 23.85395262 3.75 27.1875 C1.99422379 30.14039635 0.45374127 30.99265511 -2.625 32.5 C-9.38700105 33.36323418 -15.88724501 33.43446057 -21.625 29.5 C-21.625 27.19 -21.625 24.88 -21.625 22.5 C-20.90054687 22.80035156 -20.17609375 23.10070312 -19.4296875 23.41015625 C-13.41891285 25.77818407 -13.41891285 25.77818407 -7.0625 26.5625 C-4.39023063 25.6968295 -4.39023063 25.6968295 -3.25 22.9375 C-2.940625 21.7309375 -2.940625 21.7309375 -2.625 20.5 C-3.27726562 20.31824219 -3.92953125 20.13648438 -4.6015625 19.94921875 C-17.45711679 16.25182482 -17.45711679 16.25182482 -20.625 11.5 C-21.30040029 4.40829694 -21.30040029 4.40829694 -18.8125 1.0625 C-13.29749088 -2.87679223 -6.03936313 -2.49904681 0 0 Z " fill="#9B2034" transform="translate(434.625,142.5)"/>
<path d="M0 0 C1.98 0 3.96 0 6 0 C6 4.29 6 8.58 6 13 C10.95 13 15.9 13 21 13 C21 8.71 21 4.42 21 0 C22.98 0 24.96 0 27 0 C27 10.89 27 21.78 27 33 C25.02 33 23.04 33 21 33 C21 28.05 21 23.1 21 18 C16.05 18 11.1 18 6 18 C6 22.95 6 27.9 6 33 C4.02 33 2.04 33 0 33 C0 22.11 0 11.22 0 0 Z " fill="#9B2034" transform="translate(402,96)"/>
<path d="M0 0 C2.31 0 4.62 0 7 0 C8.99614221 4.53796236 10.9899094 9.07695758 12.98144531 13.61694336 C13.65982293 15.1624801 14.33885824 16.70772834 15.01855469 18.25268555 C15.99325263 20.46848939 16.9656103 22.685307 17.9375 24.90234375 C18.24373291 25.5971434 18.54996582 26.29194305 18.86547852 27.00779724 C21 31.88612829 21 31.88612829 21 33 C18.69 33 16.38 33 14 33 C11 27.25 11 27.25 11 25 C6.05 25 1.1 25 -4 25 C-4.66 27.31 -5.32 29.62 -6 32 C-7 33 -7 33 -10.0625 33.0625 C-11.031875 33.041875 -12.00125 33.02125 -13 33 C-12.33874059 28.81659203 -10.96005703 25.26581569 -9.27734375 21.38671875 C-9.01240616 20.77230423 -8.74746857 20.15788971 -8.47450256 19.52485657 C-7.63337662 17.57706836 -6.78555741 15.63227882 -5.9375 13.6875 C-5.36348661 12.36152097 -4.7899142 11.03535095 -4.21679688 9.70898438 C-2.81629428 6.47043034 -1.40977678 3.23452947 0 0 Z M3 9 C2.32880451 10.4562545 1.66318193 11.91507867 1 13.375 C0.62875 14.18710938 0.2575 14.99921875 -0.125 15.8359375 C-1.12495013 17.91998433 -1.12495013 17.91998433 -1 20 C1.97 20 4.94 20 8 20 C7.39301257 15.87248551 5.96189209 12.6678852 4 9 C3.67 9 3.34 9 3 9 Z " fill="#9B2034" transform="translate(679,96)"/>
<path d="M0 0 C1.98 0 3.96 0 6 0 C9.84380433 7.47730934 13.53373792 14.9992513 16.9375 22.6875 C17.24373291 23.37005859 17.54996582 24.05261719 17.86547852 24.75585938 C19.14188538 27.67629589 20 29.77693839 20 33 C17.1875 33.3125 17.1875 33.3125 14 33 C11.68858396 30.14925356 11 28.6860549 11 25 C6.05 25 1.1 25 -4 25 C-4.66 26.98 -5.32 28.96 -6 31 C-6.33 31.66 -6.66 32.32 -7 33 C-9.31 33 -11.62 33 -14 33 C-9.91009347 21.73734282 -4.98896742 10.88635422 0 0 Z M3 9 C2.16426177 10.64461345 1.33147118 12.29072513 0.5 13.9375 C0.0359375 14.85402344 -0.428125 15.77054688 -0.90625 16.71484375 C-2.07195471 18.72809692 -2.07195471 18.72809692 -2 20 C1.3 20 4.6 20 8 20 C7.54625 18.55625 7.0925 17.1125 6.625 15.625 C6.36976563 14.81289062 6.11453125 14.00078125 5.8515625 13.1640625 C5.10145717 10.83540815 5.10145717 10.83540815 3 9 Z " fill="#9B2034" transform="translate(493,96)"/>
<path d="M0 0 C1.98 0 3.96 0 6 0 C9.97593764 7.62558253 13.65795153 15.29898685 16.9375 23.25 C17.24373291 23.98855225 17.54996582 24.72710449 17.86547852 25.48803711 C20 30.74059199 20 30.74059199 20 33 C18.02 33 16.04 33 14 33 C12.68 30.69 11.36 28.38 10 26 C5.38 26 0.76 26 -4 26 C-4.99 28.31 -5.98 30.62 -7 33 C-9.31 33 -11.62 33 -14 33 C-9.91009347 21.73734282 -4.98896742 10.88635422 0 0 Z M3 9 C2.16426177 10.64461345 1.33147118 12.29072513 0.5 13.9375 C0.0359375 14.85402344 -0.428125 15.77054688 -0.90625 16.71484375 C-2.07195471 18.72809692 -2.07195471 18.72809692 -2 20 C1.3 20 4.6 20 8 20 C7.54625 18.55625 7.0925 17.1125 6.625 15.625 C6.36976563 14.81289062 6.11453125 14.00078125 5.8515625 13.1640625 C5.10145717 10.83540815 5.10145717 10.83540815 3 9 Z " fill="#9B2034" transform="translate(281,96)"/>
<path d="M0 0 C0.1875 3.125 0.1875 3.125 0 6 C-1.175625 5.649375 -2.35125 5.29875 -3.5625 4.9375 C-7.74691653 3.87088402 -10.79891062 4.12477305 -15 5 C-15.33 6.32 -15.66 7.64 -16 9 C-15.27554687 9.17015625 -14.55109375 9.3403125 -13.8046875 9.515625 C-8.11513972 10.94180498 -3.5707113 12.27126184 1 16 C2.55024464 19.10048928 2.28992015 21.57894218 2 25 C0.16173504 28.18161243 -1.33306097 29.64213028 -4.5625 31.375 C-10.81110995 32.5111109 -17.40968559 32.20196412 -23 29 C-23 26.69 -23 24.38 -23 22 C-22.41992188 22.2165625 -21.83984375 22.433125 -21.2421875 22.65625 C-16.72649225 24.26580474 -12.8615493 25.57875587 -8 25 C-7.01 24.34 -6.02 23.68 -5 23 C-5 21.68 -5 20.36 -5 19 C-5.72445313 18.82984375 -6.44890625 18.6596875 -7.1953125 18.484375 C-12.88486028 17.05819502 -17.4292887 15.72873816 -22 12 C-23.66152802 8.67694395 -23.31438945 5.37545386 -22.5 1.8125 C-17.16468538 -4.6343385 -6.46217915 -4.30811944 0 0 Z " fill="#9B2034" transform="translate(326,98)"/>
<path d="M0 0 C1.98 0 3.96 0 6 0 C6.01458252 0.68102783 6.02916504 1.36205566 6.04418945 2.0637207 C6.11862696 5.14722215 6.21530083 8.22963567 6.3125 11.3125 C6.33505859 12.38435547 6.35761719 13.45621094 6.38085938 14.56054688 C6.41630859 15.58857422 6.45175781 16.61660156 6.48828125 17.67578125 C6.51446533 18.62364502 6.54064941 19.57150879 6.56762695 20.5480957 C7.06794448 23.38530007 7.74620053 24.26825727 10 26 C12.71952371 27.17846027 13.81221201 27.05677311 16.6875 26.1875 C19.13776085 25.21728135 19.13776085 25.21728135 20 23 C20.15266612 21.26131256 20.24932596 19.51752499 20.31640625 17.7734375 C20.35830078 16.7421875 20.40019531 15.7109375 20.44335938 14.6484375 C20.48267578 13.56820312 20.52199219 12.48796875 20.5625 11.375 C20.60568359 10.28703125 20.64886719 9.1990625 20.69335938 8.078125 C20.7996453 5.3855483 20.90168057 2.69287747 21 0 C22.98 0 24.96 0 27 0 C27.11662261 4.04142215 27.1873935 8.08240865 27.25 12.125 C27.30027344 13.83816406 27.30027344 13.83816406 27.3515625 15.5859375 C27.47673857 26.35107918 27.47673857 26.35107918 23 31 C18.60036741 34.10667934 13.15024314 33.61117212 8 33 C3.8566767 30.96468329 1.65407885 29.28125577 0 25 C-0.22705078 22.25097656 -0.22705078 22.25097656 -0.1953125 19.140625 C-0.18886719 18.02558594 -0.18242187 16.91054687 -0.17578125 15.76171875 C-0.15902344 14.60285156 -0.14226562 13.44398438 -0.125 12.25 C-0.11597656 11.07566406 -0.10695312 9.90132812 -0.09765625 8.69140625 C-0.07410063 5.79406464 -0.04120652 2.89713559 0 0 Z " fill="#9B2034" transform="translate(241,142)"/>
<path d="M0 0 C2.31 0 4.62 0 7 0 C7.91751482 1.97877362 8.83396224 3.95804217 9.75 5.9375 C10.26046875 7.03964844 10.7709375 8.14179688 11.296875 9.27734375 C13.23996993 13.49947834 15.12044503 17.7492863 17 22 C17.2673999 21.36908447 17.5347998 20.73816895 17.81030273 20.08813477 C19.01687 17.2451885 20.22713352 14.40383072 21.4375 11.5625 C22.06881836 10.07266602 22.06881836 10.07266602 22.71289062 8.55273438 C23.11572266 7.60849609 23.51855469 6.66425781 23.93359375 5.69140625 C24.30540771 4.81685791 24.67722168 3.94230957 25.06030273 3.04125977 C26 1 26 1 27 0 C28.99958364 -0.04080783 31.00045254 -0.04254356 33 0 C32.33874059 4.18340797 30.96005703 7.73418431 29.27734375 11.61328125 C29.01240616 12.22769577 28.74746857 12.84211029 28.47450256 13.47514343 C27.63337662 15.42293164 26.78555741 17.36772118 25.9375 19.3125 C25.36348661 20.63847903 24.7899142 21.96464905 24.21679688 23.29101562 C22.81629428 26.52956966 21.40977678 29.76547053 20 33 C18.02 33 16.04 33 14 33 C10.54133591 26.33318253 7.61732754 19.50159936 4.75 12.5625 C4.29109375 11.46228516 3.8321875 10.36207031 3.359375 9.22851562 C0 1.13502139 0 1.13502139 0 0 Z " fill="#9B2034" transform="translate(318,142)"/>
<path d="M0 0 C0 2.31 0 4.62 0 7 C-0.825 6.649375 -1.65 6.29875 -2.5 5.9375 C-7.67532465 4.55125233 -11.89760629 5.2992021 -17 7 C-19.8374471 12.81676655 -19.00224774 17.99325679 -17 24 C-11.92770939 26.5361453 -7.39307684 26.0169802 -2 25 C-1.01 24.67 -0.02 24.34 1 24 C1 25.98 1 27.96 1 30 C-4.85235826 33.18062949 -9.50708709 33.69878781 -16 32 C-19.92318014 30.15940521 -22.37649386 27.84475025 -24.9375 24.375 C-26.69279038 18.79937173 -27.25456449 13.14931826 -25.05078125 7.6171875 C-22.18846883 2.72326532 -19.17938173 0.05979391 -13.75 -1.75 C-9.23238445 -2.16069232 -4.10974977 -2.05487489 0 0 Z " fill="#9B2034" transform="translate(396,97)"/>
<path d="M0 0 C1.66842665 0.91933713 3.33270244 1.84719019 4.97265625 2.81640625 C12.42458236 7.1669527 19.19898584 8.64213105 27.7421875 9.41015625 C31 10 31 10 32.9609375 11.39453125 C34 13 34 13 33.75 15.625 C33 18 33 18 32 19 C21.08798603 21.13495926 11.78136793 20.58657866 2.078125 14.8671875 C-1.03547314 12.62836217 -1.97412267 11.100059 -2.9375 7.375 C-3 4 -3 4 -2 1 C-1.34 0.67 -0.68 0.34 0 0 Z " fill="#9B2034" transform="translate(561,51)"/>
<path d="M0 0 C5.02723735 -0.88197147 5.02723735 -0.88197147 8 0 C10.22264639 2.45049989 11.85986946 4.97466514 13.5546875 7.8125 C14.03164063 8.534375 14.50859375 9.25625 15 10 C15.66 10 16.32 10 17 10 C18.107824 8.36310965 19.16196738 6.68966472 20.1875 5 C22.046875 2.2265625 22.046875 2.2265625 24 0 C27.9375 -0.625 27.9375 -0.625 31 0 C29.88244309 2.56488471 28.62828706 4.46651679 26.87109375 6.671875 C20.00655521 15.3544695 18.64810826 22.03505339 19 33 C17.02 33 15.04 33 13 33 C13.06703125 32.11441406 13.1340625 31.22882813 13.203125 30.31640625 C13.35233613 18.36708156 8.47368885 11.5376235 1.08569336 2.43603516 C0 1 0 1 0 0 Z " fill="#9B2034" transform="translate(481,142)"/>
<path d="M0 0 C9.24 0 18.48 0 28 0 C28 1.98 28 3.96 28 6 C24.37 6 20.74 6 17 6 C17 14.91 17 23.82 17 33 C15.02 33 13.04 33 11 33 C11 24.09 11 15.18 11 6 C7.37 6 3.74 6 0 6 C0 4.02 0 2.04 0 0 Z " fill="#9B2034" transform="translate(329,96)"/>
<path d="M0 0 C8.91 0 17.82 0 27 0 C27 1.65 27 3.3 27 5 C23.37 5 19.74 5 16 5 C16 14.24 16 23.48 16 33 C14.02 33 12.04 33 10 33 C10 23.76 10 14.52 10 5 C6.7 5 3.4 5 0 5 C0 3.35 0 1.7 0 0 Z " fill="#9B2034" transform="translate(453,142)"/>
<path d="M0 0 C1.98 0 3.96 0 6 0 C6 8.91 6 17.82 6 27 C11.61 27 17.22 27 23 27 C23 28.98 23 30.96 23 33 C15.41 33 7.82 33 0 33 C0 22.11 0 11.22 0 0 Z " fill="#9B2034" transform="translate(703,96)"/>
<path d="M0 0 C1.98 0 3.96 0 6 0 C6 10.89 6 21.78 6 33 C4.02 33 2.04 33 0 33 C0 22.11 0 11.22 0 0 Z " fill="#9B2034" transform="translate(443,142)"/>
<path d="M0 0 C1.98 0 3.96 0 6 0 C6 10.89 6 21.78 6 33 C4.02 33 2.04 33 0 33 C0 22.11 0 11.22 0 0 Z " fill="#9B2034" transform="translate(309,142)"/>
<path d="M0 0 C1.98 0 3.96 0 6 0 C6 10.89 6 21.78 6 33 C4.02 33 2.04 33 0 33 C0 22.11 0 11.22 0 0 Z " fill="#9B2034" transform="translate(436,96)"/>
<path d="M0 0 C1.875 -0.36328125 1.875 -0.36328125 4 -0.3125 C4.70125 -0.30863281 5.4025 -0.30476562 6.125 -0.30078125 C8 0 8 0 10 2 C10.125 4.625 10.125 4.625 10 7 C7.59454362 8.20272819 6.05003047 8.10071472 3.375 8.0625 C2.14910156 8.04896484 2.14910156 8.04896484 0.8984375 8.03515625 C-0.04128906 8.01775391 -0.04128906 8.01775391 -1 8 C-1.625 5.6875 -1.625 5.6875 -2 3 C-1.34 2.01 -0.68 1.02 0 0 Z " fill="#9B2034" transform="translate(250,11)"/>
</svg>
