<?xml version="1.0" encoding="UTF-8"?>
<svg version="1.1" xmlns="http://www.w3.org/2000/svg" width="623" height="199">
<path d="M0 0 C3.5 0.5 3.5 0.5 5.20703125 2.109375 C6.92990161 5.2948634 6.79546577 7.65114113 6.6875 11.25 C6.64689453 13.00570313 6.64689453 13.00570313 6.60546875 14.796875 C6.57066406 15.68890625 6.53585938 16.5809375 6.5 17.5 C7.068396 17.76425781 7.63679199 18.02851562 8.22241211 18.30078125 C10.65148468 19.57976126 12.74058802 21.04749988 14.94140625 22.6875 C15.77220703 23.30367187 16.60300781 23.91984375 17.45898438 24.5546875 C18.74772461 25.51761719 18.74772461 25.51761719 20.0625 26.5 C21.77172385 27.77138682 23.48134262 29.04224294 25.19140625 30.3125 C25.94623291 30.87582031 26.70105957 31.43914063 27.47875977 32.01953125 C29.12170252 33.22291389 30.80551764 34.37034509 32.5 35.5 C32.78875 34.55125 33.0775 33.6025 33.375 32.625 C34.5 29.5 34.5 29.5 36.5 27.5 C42.96153846 27.96153846 42.96153846 27.96153846 45.5 30.5 C45.53328275 32.33679192 45.55823293 34.17446658 45.5234375 36.01123047 C45.3565231 43.10601857 45.3565231 43.10601857 48.75 49.04296875 C51.2690538 50.72114521 53.81546574 52.11112637 56.5 53.5 C57.89935013 56.29870027 57.75265405 58.40498792 57.5 61.5 C56.4375 63.4375 56.4375 63.4375 54.5 64.5 C47.78186707 64.39859422 44.28461614 61.50754733 39.25 57.3125 C37.67244313 56.04064552 36.09294776 54.77119245 34.51171875 53.50390625 C33.69622559 52.84664551 32.88073242 52.18938477 32.04052734 51.51220703 C27.79481415 48.14941939 23.43216263 44.94906717 19.0625 41.75 C17.84675293 40.85631714 17.84675293 40.85631714 16.60644531 39.94458008 C13.60070153 37.74090204 10.60168556 35.56779038 7.5 33.5 C6.8119358 36.22660875 6.8119358 36.22660875 7.5 39.5 C9.89645456 42.07405982 12.78059844 43.91745896 15.6875 45.875 C17.42986213 47.10076821 19.17069068 48.32871855 20.91015625 49.55859375 C22.28131592 50.51741455 22.28131592 50.51741455 23.68017578 51.49560547 C28.41556964 54.86163002 33.01643488 58.4008579 37.625 61.9375 C38.47602295 62.58702637 39.3270459 63.23655273 40.20385742 63.90576172 C55.87284678 75.87284678 55.87284678 75.87284678 57.5 77.5 C57.6875 80.9375 57.6875 80.9375 57.5 84.5 C55.5 86.5 55.5 86.5 52.0625 86.75 C48.5 86.5 48.5 86.5 45.5 84.5 C45.5 86.81 45.5 89.12 45.5 91.5 C46.35851562 91.91185547 46.35851562 91.91185547 47.234375 92.33203125 C51.0285156 94.28797614 54.52277245 96.41042425 57.5 99.5 C58.25 103.1875 58.25 103.1875 57.5 106.5 C55.8125 108.5 55.8125 108.5 53.5 109.5 C50.80190224 109.24303831 48.91649307 108.70824654 46.5 107.5 C46.08690296 110.31840102 46.08690296 110.31840102 46.5 113.5 C48.6178624 115.91148683 48.6178624 115.91148683 51.4375 117.8125 C52.35402344 118.48925781 53.27054687 119.16601562 54.21484375 119.86328125 C55.34599609 120.67345703 55.34599609 120.67345703 56.5 121.5 C57.5 122.5 57.5 122.5 57.75 125.375 C57.5 128.5 57.5 128.5 56.375 130.375 C53.48888515 132.10666891 51.85257241 131.94752405 48.5 131.5 C45.524026 129.76246032 42.95276701 127.58005498 40.3125 125.375 C38.7245615 124.09268914 37.13464904 122.81281961 35.54296875 121.53515625 C34.72103027 120.8714502 33.8990918 120.20774414 33.05224609 119.52392578 C28.82686071 116.17320406 24.47921287 112.99291722 20.125 109.8125 C19.32296143 109.2251709 18.52092285 108.6378418 17.69458008 108.03271484 C16.26811617 106.98848401 14.84090918 105.94526665 13.41259766 104.90356445 C11.43117716 103.44949419 9.46372947 101.97784982 7.5 100.5 C6.71497191 103.17563278 6.71497191 103.17563278 7.5 106.5 C10.26423571 109.44202355 13.52934932 111.66977353 16.8125 114 C17.75351563 114.69198486 18.69453125 115.38396973 19.6640625 116.09692383 C22.59682188 118.24913539 25.54724668 120.37533234 28.5 122.5 C31.18003942 124.4529298 33.85562036 126.41170765 36.52807617 128.375 C38.1368331 129.55459619 39.75007069 130.72811378 41.3684082 131.89453125 C45.41019252 134.83175334 49.27613638 137.66084631 52.5 141.5 C52.4375 145.25 52.4375 145.25 51.5 148.5 C48.27265835 150.11367082 46.08709545 149.91375725 42.5 149.5 C39.44436013 147.78068117 36.85881075 145.57156779 34.1875 143.3125 C32.6130429 142.03224127 31.03614378 140.75498089 29.45703125 139.48046875 C28.64830566 138.82353027 27.83958008 138.1665918 27.00634766 137.48974609 C22.89729638 134.22764129 18.64307555 131.17435845 14.375 128.125 C13.58697998 127.56014893 12.79895996 126.99529785 11.98706055 126.41333008 C10.16012395 125.10592283 8.33127307 123.80132267 6.5 122.5 C6.5314209 123.8317627 6.5314209 123.8317627 6.56347656 125.19042969 C6.63175677 128.49294455 6.6818487 131.7947067 6.71972656 135.09765625 C6.73980982 136.52551121 6.76708252 137.95328425 6.80175781 139.38085938 C6.85042669 141.43640368 6.87299967 143.49085855 6.890625 145.546875 C6.9220459 147.40070801 6.9220459 147.40070801 6.95410156 149.29199219 C6.5 152.5 6.5 152.5 4.70214844 154.93457031 C2.5 156.5 2.5 156.5 -1.125 156.5 C-4.5 155.5 -4.5 155.5 -5.69873047 153.85839844 C-6.75825765 150.73986323 -6.72419595 148.05833852 -6.6953125 144.765625 C-6.68886719 143.47011719 -6.68242188 142.17460937 -6.67578125 140.83984375 C-6.65907193 139.47655981 -6.64214206 138.11327856 -6.625 136.75 C-6.6149634 135.37110015 -6.60583873 133.99219335 -6.59765625 132.61328125 C-6.57408093 129.24201118 -6.5411727 125.87109364 -6.5 122.5 C-8.4656764 123.93837126 -10.43018955 125.3782987 -12.39355469 126.81982422 C-14.10255266 128.07451083 -15.81286039 129.32741521 -17.52441406 130.57861328 C-21.84731543 133.75252036 -26.12063269 136.96391194 -30.30078125 140.32421875 C-31.05109619 140.92145752 -31.80141113 141.51869629 -32.57446289 142.1340332 C-33.99512295 143.27091199 -35.40509435 144.42131456 -36.80249023 145.58666992 C-40.20820997 148.29608282 -41.92192177 149.43628865 -46.36328125 149.92578125 C-49.5 149.5 -49.5 149.5 -51.4375 148.3125 C-52.87674763 145.85731287 -52.79582756 144.31458795 -52.5 141.5 C-45.31268158 131.85215815 -31.6550055 124.61308657 -21.97119141 117.69287109 C-19.57262028 115.97825831 -17.19184371 114.24115018 -14.8125 112.5 C-14.07580078 111.98477783 -13.33910156 111.46955566 -12.58007812 110.9387207 C-10.69659188 109.54536689 -9.03298441 108.27191372 -7.5 106.5 C-6.88601218 103.24415642 -6.88601218 103.24415642 -7.5 100.5 C-8.03665283 100.91137207 -8.57330566 101.32274414 -9.1262207 101.74658203 C-19.91863483 110.01247814 -30.74845656 118.21743234 -41.7199707 126.24462891 C-42.46722412 126.7916748 -43.21447754 127.3387207 -43.984375 127.90234375 C-44.97002441 128.62151978 -44.97002441 128.62151978 -45.97558594 129.35522461 C-47.46380382 130.41686622 -47.46380382 130.41686622 -48.5 131.5 C-53.74050633 131.9556962 -53.74050633 131.9556962 -56.375 130.375 C-58.17270243 127.37882929 -58.22931259 125.94765953 -57.5 122.5 C-54.27287099 118.9143011 -50.49899514 116.16599676 -46.5 113.5 C-46.2497843 110.41634129 -46.2497843 110.41634129 -46.5 107.5 C-47.056875 107.850625 -47.61375 108.20125 -48.1875 108.5625 C-51.08531848 109.73729128 -52.5517025 109.43104132 -55.5 108.5 C-57.5 106.5 -57.5 106.5 -57.9375 103.6875 C-57.35268599 99.42671218 -55.74272561 98.23830163 -52.5 95.5 C-51.613125 94.736875 -50.72625 93.97375 -49.8125 93.1875 C-47.5 91.5 -47.5 91.5 -45.5 91.5 C-45.5 89.19 -45.5 86.88 -45.5 84.5 C-46.985 85.49 -46.985 85.49 -48.5 86.5 C-51.62026907 86.82502803 -53.64747535 87.01151479 -56.375 85.375 C-58.03342999 82.61095002 -57.84430322 80.67392161 -57.5 77.5 C-55.76171875 75.4375 -55.76171875 75.4375 -53.1875 73.5 C-52.17945313 72.72914062 -51.17140625 71.95828125 -50.1328125 71.1640625 C-48.92299769 70.27451275 -47.71197106 69.3866097 -46.5 68.5 C-45.08033974 67.44583675 -43.66109215 66.39111759 -42.2421875 65.3359375 C-35.47662693 60.3267515 -28.69722838 55.34315556 -21.828125 50.4765625 C-19.98938973 49.15131024 -18.15084303 47.82579631 -16.3125 46.5 C-15.43279541 45.88946777 -14.55309082 45.27893555 -13.64672852 44.64990234 C-8.79219574 41.35629685 -8.79219574 41.35629685 -6.94921875 36.0625 C-7.13097656 35.216875 -7.31273437 34.37125 -7.5 33.5 C-10.23164978 35.49662375 -12.95981063 37.49796988 -15.6875 39.5 C-16.53086914 40.11705811 -17.37423828 40.73411621 -18.24316406 41.36987305 C-22.95027164 44.82932918 -27.60238101 48.3420804 -32.19140625 51.95703125 C-33.584198 53.04661133 -33.584198 53.04661133 -35.00512695 54.15820312 C-36.80561715 55.57130687 -38.59749475 56.99546857 -40.37963867 58.43164062 C-45.10447524 62.12514437 -48.39657697 64.53166497 -54.5 64.5 C-56.4375 63.4375 -56.4375 63.4375 -57.5 61.5 C-58 58.625 -58 58.625 -57.5 55.5 C-55.03102094 52.4500847 -52.82072608 50.6715326 -49.359375 48.8203125 C-46.14841042 46.72580832 -46.14841042 46.72580832 -45.8359375 42.96875 C-45.84882812 41.6590625 -45.86171875 40.349375 -45.875 39 C-45.91588084 32.07751138 -45.91588084 32.07751138 -43.7109375 29.015625 C-41.5 27.5 -41.5 27.5 -37.75 27.75 C-36.6775 27.9975 -35.605 28.245 -34.5 28.5 C-33.84 30.81 -33.18 33.12 -32.5 35.5 C-29.43623843 33.25171391 -26.37421888 31.00106683 -23.3125 28.75 C-22.44818359 28.11578125 -21.58386719 27.4815625 -20.69335938 26.828125 C-17.24379128 24.29051169 -13.82245057 21.76470452 -10.51171875 19.046875 C-8.5 17.5 -8.5 17.5 -6.5 17.5 C-6.53480469 16.60796875 -6.56960937 15.7159375 -6.60546875 14.796875 C-6.63253906 13.62640625 -6.65960938 12.4559375 -6.6875 11.25 C-6.73970703 9.50976562 -6.73970703 9.50976562 -6.79296875 7.734375 C-6.33163295 2.64122772 -5.11575643 0.73082235 0 0 Z M-11.25390625 57.3515625 C-12.02669922 57.95613281 -12.79949219 58.56070313 -13.59570312 59.18359375 C-14.40974609 59.82425781 -15.22378906 60.46492188 -16.0625 61.125 C-17.64659075 62.36788201 -19.2312225 63.61007482 -20.81640625 64.8515625 C-21.59322754 65.46402832 -22.37004883 66.07649414 -23.17041016 66.70751953 C-24.70874853 67.89117918 -26.27114206 69.04428859 -27.85693359 70.16357422 C-28.58348145 70.67678223 -29.3100293 71.18999023 -30.05859375 71.71875 C-30.71013428 72.16412109 -31.3616748 72.60949219 -32.03295898 73.06835938 C-33.92232781 74.61597239 -33.92232781 74.61597239 -34 78.375 C-33.835 79.40625 -33.67 80.4375 -33.5 81.5 C-24.33207298 75.77984041 -14.16843255 69.16843255 -6.5 61.5 C-6.45907063 59.16702567 -6.45758277 56.83294775 -6.5 54.5 C-8.38384167 54.5 -9.8370953 56.23845903 -11.25390625 57.3515625 Z M6.5 54.5 C5.97538106 59.53844667 5.97538106 59.53844667 8.37890625 63.765625 C9.26449219 64.42046875 10.15007812 65.0753125 11.0625 65.75 C12.05121094 66.49636719 13.03992188 67.24273437 14.05859375 68.01171875 C14.60499512 68.40665527 15.15139648 68.8015918 15.71435547 69.20849609 C17.67132999 70.62391791 19.60339573 72.06990883 21.53515625 73.51953125 C27.20243164 78.56016059 27.20243164 78.56016059 33.5 81.5 C34.2085499 78.30100607 34.2085499 78.30100607 33.5 74.5 C31.055859 71.65817351 28.10532768 69.60272726 25.0625 67.4375 C24.27939453 66.85162109 23.49628906 66.26574219 22.68945312 65.66210938 C17.41903186 61.75375583 11.98898694 58.09283623 6.5 54.5 Z M6.5 77.5 C5.87443013 80.41424014 5.64130812 81.7085949 6.5 84.5 C9.54617701 87.74613119 13.1172591 90.19803522 16.75 92.75 C18.20212891 93.80960938 18.20212891 93.80960938 19.68359375 94.890625 C21.48773275 96.20453589 23.29860271 97.50928891 25.11816406 98.80175781 C26.6670029 99.90607546 28.19200587 101.04488894 29.68652344 102.22167969 C31.40265888 103.69204913 31.40265888 103.69204913 33.5 103.5 C34.12556987 100.58575986 34.35869188 99.2914051 33.5 96.5 C30.45382299 93.25386881 26.8827409 90.80196478 23.25 88.25 C22.28191406 87.54359375 21.31382813 86.8371875 20.31640625 86.109375 C18.51226725 84.79546411 16.70139729 83.49071109 14.88183594 82.19824219 C13.3329971 81.09392454 11.80799413 79.95511106 10.31347656 78.77832031 C8.59734112 77.30795087 8.59734112 77.30795087 6.5 77.5 Z M-11.5078125 80.38671875 C-12.74144531 81.3003418 -12.74144531 81.3003418 -14 82.23242188 C-15.299375 83.20018555 -15.299375 83.20018555 -16.625 84.1875 C-18.314745 85.44189021 -20.00484358 86.69580429 -21.6953125 87.94921875 C-22.50830811 88.55660889 -23.32130371 89.16399902 -24.15893555 89.78979492 C-26.26705968 91.32983138 -28.41599178 92.77438226 -30.58984375 94.21875 C-31.55019531 94.9715625 -32.51054688 95.724375 -33.5 96.5 C-34.08560449 100.21158857 -34.08560449 100.21158857 -33.5 103.5 C-30.42950044 102.07037471 -27.81039767 100.36616284 -25.09375 98.34765625 C-24.26746094 97.73599609 -23.44117188 97.12433594 -22.58984375 96.49414062 C-21.73519531 95.85669922 -20.88054687 95.21925781 -20 94.5625 C-19.14535156 93.92892578 -18.29070312 93.29535156 -17.41015625 92.64257812 C-15.10410125 90.93192422 -12.80067735 89.21787768 -10.5 87.5 C-9.75427734 87.01329834 -9.00855469 86.52659668 -8.24023438 86.02514648 C-6.06282614 84.47877653 -6.06282614 84.47877653 -6.25 80.8125 C-6.3325 79.719375 -6.415 78.62625 -6.5 77.5 C-8.42639843 77.5 -10.03086229 79.28881309 -11.5078125 80.38671875 Z " fill="#9B2034" transform="translate(99.5,17.5)"/>
<path d="M0 0 C21.68139839 18.33223929 35.71207312 40.76696331 39 69.375 C40.29900807 89.64944886 37.33923265 108.27493886 28 126.375 C27.44183594 127.46554688 26.88367188 128.55609375 26.30859375 129.6796875 C22.40874007 136.79171765 17.65138432 142.58394268 12 148.375 C11.175 149.24125 10.35 150.1075 9.5 151 C8.675 151.78375 7.85 152.5675 7 153.375 C6.40316406 153.96667969 5.80632812 154.55835938 5.19140625 155.16796875 C-1.17013212 161.2026758 -8.25174328 165.41175096 -16 169.375 C-17.63775391 170.21417969 -17.63775391 170.21417969 -19.30859375 171.0703125 C-42.02310955 181.71857786 -69.54422548 182.7162451 -93.23193359 174.61132812 C-97.96948725 172.82065523 -102.49760803 170.68727495 -107 168.375 C-108.06734375 167.84003906 -109.1346875 167.30507812 -110.234375 166.75390625 C-118.29075632 162.40220805 -124.50332334 156.71457353 -131 150.375 C-131.73089844 149.71757812 -132.46179688 149.06015625 -133.21484375 148.3828125 C-149.1399253 133.68758873 -158.94657425 109.48951356 -160.12451172 88.11572266 C-160.98705145 61.17341021 -154.57923479 34.71470373 -136 14.375 C-135.53996582 13.86727051 -135.07993164 13.35954102 -134.60595703 12.83642578 C-100.26441195 -24.61798192 -40.87388773 -31.27969543 0 0 Z M-126.13671875 21.2734375 C-143.38651656 40.7291843 -149.34969025 64.90987635 -148 90.375 C-146.10728737 108.8702321 -137.16784117 125.68095194 -125 139.375 C-124.06027344 140.44041016 -124.06027344 140.44041016 -123.1015625 141.52734375 C-108.81344056 156.74992092 -87.18325107 166.91311044 -66.3125 167.578125 C-39.46363381 167.97459528 -17.09585969 159.78969132 2.5625 141.1875 C20.2959649 122.92140452 27.51437956 99.69874365 27.21484375 74.71875 C26.56149363 51.66888246 15.33776451 31.03379248 -1 15.375 C-18.82361214 -1.41235562 -40.8970669 -8.17345514 -65.078125 -7.8359375 C-88.65543821 -7.09743697 -109.98365742 4.50532975 -126.13671875 21.2734375 Z " fill="#9B2034" transform="translate(160,19.625)"/>
<path d="M0 0 C4.56709899 0.24235017 7.10664553 1.23748368 10.27368164 4.57910156 C13.39722305 8.42154977 16.1487358 12.51461897 18.86889648 16.64892578 C21.7351894 20.92724846 24.88148023 24.98729151 28.00024414 29.08300781 C29.25294181 30.75774607 30.50422868 32.43354048 31.75415039 34.11035156 C36.39132218 40.30944321 41.09701268 46.45624139 45.82006836 52.59008789 C49.60169017 57.52629327 53.26692494 62.53346823 56.87207031 67.59912109 C57.33120567 68.2431337 57.79034103 68.8871463 58.26338959 69.55067444 C59.38459844 71.12353134 60.50500433 72.69696058 61.62524414 74.27050781 C61.63555161 73.37070694 61.64585907 72.47090607 61.65647888 71.5438385 C61.75427756 63.08229995 61.85676634 54.62083421 61.9645834 46.15941715 C62.01985199 41.80885976 62.07327813 37.45829569 62.12255859 33.10766602 C62.17014428 28.91254571 62.22248472 24.71750969 62.27818489 20.52248955 C62.2986348 18.91846236 62.31734344 17.31441204 62.33431816 15.71034431 C62.35830412 13.47128012 62.38836608 11.23237665 62.41992188 8.9934082 C62.43546616 7.71655655 62.45101044 6.4397049 62.46702576 5.12416077 C62.62524414 2.27050781 62.62524414 2.27050781 63.62524414 1.27050781 C66.30255794 1.17069568 68.94828589 1.13170906 71.62524414 1.14550781 C72.37547852 1.14164063 73.12571289 1.13777344 73.89868164 1.13378906 C79.49863361 1.14389728 79.49863361 1.14389728 80.62524414 2.27050781 C80.72266482 3.60890254 80.75155973 4.95237606 80.75222778 6.29431152 C80.75645752 7.59419258 80.75645752 7.59419258 80.76077271 8.92033386 C80.75773636 10.35727348 80.75773636 10.35727348 80.75463867 11.82324219 C80.75726715 13.32797844 80.75726715 13.32797844 80.75994873 14.8631134 C80.7643693 18.19684553 80.76142853 21.5305251 80.75805664 24.86425781 C80.75872962 27.16971853 80.7596996 29.47517918 80.76095581 31.78063965 C80.76243306 36.61955438 80.76027735 41.45845069 80.75561523 46.29736328 C80.74991794 52.51545427 80.7531968 58.73350209 80.7591877 64.95159149 C80.76279257 69.71433846 80.76165506 74.47707512 80.75905991 79.23982239 C80.75839043 81.5332693 80.75921976 83.82671713 80.76153946 86.12016296 C80.76406478 89.31939188 80.76022709 92.51854984 80.75463867 95.71777344 C80.7566629 96.67573318 80.75868713 97.63369293 80.76077271 98.62068176 C80.75795288 99.48726913 80.75513306 100.35385651 80.75222778 101.2467041 C80.75166224 102.38270931 80.75166224 102.38270931 80.75108528 103.54166412 C80.62524414 105.27050781 80.62524414 105.27050781 79.62524414 106.27050781 C77.0576557 106.56078296 74.57615662 106.73428746 72.00024414 106.83300781 C71.3002832 106.89552734 70.60032227 106.95804687 69.87915039 107.02246094 C66.50421049 107.12577542 64.43491409 106.9306446 61.76660156 104.75512695 C59.91170668 102.67463328 58.25853575 100.52875897 56.62524414 98.27050781 C56.09737305 97.57723389 55.56950195 96.88395996 55.02563477 96.16967773 C53.3835656 93.99434103 51.78311009 91.79278937 50.18774414 89.58300781 C45.03773177 82.52079291 39.81044338 75.52559928 34.50024414 68.58300781 C28.30995599 60.48658428 22.16426062 52.35904939 16.06408691 44.19454956 C14.53114004 42.14467042 12.99571159 40.09666843 11.4597168 38.04907227 C10.92673981 37.33854202 10.39376282 36.62801178 9.84463501 35.89595032 C9.44223602 35.35955429 9.03983704 34.82315826 8.62524414 34.27050781 C8.60978294 35.60141701 8.60978294 35.60141701 8.5940094 36.95921326 C8.4962099 45.30302352 8.39372099 53.64675996 8.28590488 61.99044704 C8.23063678 66.28046991 8.17721071 70.57049955 8.12792969 74.8605957 C8.08034329 78.99736217 8.02800282 83.13404318 7.97230339 87.27070808 C7.9518538 88.85240628 7.93314511 90.43412793 7.91617012 92.01586723 C7.89218344 94.22379959 7.86212158 96.43156901 7.83056641 98.6394043 C7.81502213 99.89849106 7.79947784 101.15757782 7.78346252 102.45481873 C7.62524414 105.27050781 7.62524414 105.27050781 6.62524414 106.27050781 C3.94793034 106.37031995 1.3022024 106.40930657 -1.37475586 106.39550781 C-2.50010742 106.40130859 -2.50010742 106.40130859 -3.64819336 106.40722656 C-9.24814533 106.39711835 -9.24814533 106.39711835 -10.37475586 105.27050781 C-10.47217653 103.93211308 -10.50107145 102.58863957 -10.5017395 101.2467041 C-10.50455933 100.38011673 -10.50737915 99.51352936 -10.51028442 98.62068176 C-10.50826019 97.66272202 -10.50623596 96.70476227 -10.50415039 95.71777344 C-10.50590271 94.71461594 -10.50765503 93.71145844 -10.50946045 92.67790222 C-10.51388102 89.3441701 -10.51094025 86.01049053 -10.50756836 82.67675781 C-10.50824134 80.3712971 -10.50921131 78.06583645 -10.51046753 75.76037598 C-10.51194478 70.92146125 -10.50978907 66.08256494 -10.50512695 61.24365234 C-10.49942966 55.02556136 -10.50270852 48.80751353 -10.50869942 42.58942413 C-10.51230429 37.82667716 -10.51116678 33.06394051 -10.50857162 28.30119324 C-10.50790215 26.00774633 -10.50873148 23.7142985 -10.51105118 21.42085266 C-10.5135765 18.22162375 -10.50973881 15.02246578 -10.50415039 11.82324219 C-10.50617462 10.86528244 -10.50819885 9.90732269 -10.51028442 8.92033386 C-10.5074646 8.05374649 -10.50464478 7.18715912 -10.5017395 6.29431152 C-10.50136248 5.53697472 -10.50098545 4.77963791 -10.500597 3.9993515 C-10.16871325 -0.56016789 -3.56208507 0.13518349 0 0 Z " fill="#9B2034" transform="translate(436.374755859375,45.7294921875)"/>
<path d="M0 0 C0.71055038 -0.00175232 1.42110077 -0.00350464 2.15318298 -0.00531006 C4.51295378 -0.00972824 6.87265025 -0.00679072 9.23242188 -0.00341797 C10.86527521 -0.00409102 12.49812845 -0.00506105 14.13098145 -0.00631714 C17.55754549 -0.00779407 20.98408351 -0.00563973 24.41064453 -0.00097656 C28.81271689 0.00472073 33.21472828 0.00144169 37.6167984 -0.00454903 C40.98985253 -0.00815478 44.3628921 -0.00701599 47.73594666 -0.00442123 C49.35953275 -0.003752 50.98312014 -0.00458025 52.60670471 -0.00690079 C54.87195358 -0.00942755 57.13710238 -0.00558641 59.40234375 0 C61.33974426 0.00119339 61.33974426 0.00119339 63.31628418 0.00241089 C66.20117188 0.12939453 66.20117188 0.12939453 67.20117188 1.12939453 C67.3009222 3.64075558 67.33999371 6.11842868 67.32617188 8.62939453 C67.33003906 9.33193359 67.33390625 10.03447266 67.33789062 10.75830078 C67.32778565 16.00278075 67.32778565 16.00278075 66.20117188 17.12939453 C64.45188468 17.2230446 62.69880934 17.24683891 60.94702148 17.24291992 C59.82593491 17.24284439 58.70484833 17.24276886 57.54978943 17.24269104 C55.7201339 17.23494911 55.7201339 17.23494911 53.85351562 17.22705078 C52.61195206 17.22563583 51.37038849 17.22422089 50.09120178 17.22276306 C46.78511697 17.21810044 43.47910041 17.2091095 40.17303467 17.19805908 C36.80156049 17.1878428 33.43007906 17.18321027 30.05859375 17.17822266 C23.43941448 17.16801732 16.82035534 17.14844559 10.20117188 17.12939453 C10.20117188 25.37939453 10.20117188 33.62939453 10.20117188 42.12939453 C13.79894531 42.11779297 17.39671875 42.10619141 21.10351562 42.09423828 C24.57185783 42.08644896 28.04019907 42.08037149 31.50854492 42.07446289 C33.9268436 42.06942104 36.34513921 42.06258775 38.76342773 42.05395508 C42.23096471 42.04188296 45.69846154 42.0361649 49.16601562 42.03173828 C50.2545433 42.026577 51.34307098 42.02141571 52.46458435 42.01609802 C53.96602745 42.01598473 53.96602745 42.01598473 55.49780273 42.01586914 C56.82683876 42.01253822 56.82683876 42.01253822 58.182724 42.00914001 C60.20117188 42.12939453 60.20117188 42.12939453 61.20117188 43.12939453 C61.3009222 45.64075558 61.33999371 48.11842868 61.32617188 50.62939453 C61.33003906 51.33193359 61.33390625 52.03447266 61.33789062 52.75830078 C61.32778565 58.00278075 61.32778565 58.00278075 60.20117188 59.12939453 C58.63570139 59.22266169 57.06604415 59.24685035 55.49780273 59.24291992 C54.49684067 59.24284439 53.4958786 59.24276886 52.46458435 59.24269104 C51.37605667 59.23752975 50.28752899 59.23236847 49.16601562 59.22705078 C48.05762833 59.22563583 46.94924103 59.22422089 45.80726624 59.22276306 C42.25104118 59.21714486 38.69487804 59.20458928 35.13867188 59.19189453 C32.73437591 59.18688188 30.33007896 59.18231856 27.92578125 59.17822266 C22.01753482 59.16801843 16.10942302 59.14844658 10.20117188 59.12939453 C10.20117188 68.69939453 10.20117188 78.26939453 10.20117188 88.12939453 C14.37644531 88.11779297 18.55171875 88.10619141 22.85351562 88.09423828 C26.17414571 88.08781132 29.49477405 88.0823871 32.8154068 88.07764435 C36.3254368 88.0723547 39.83544283 88.06528133 43.34545898 88.05395508 C47.36898028 88.04105248 51.39247602 88.03616541 55.41601562 88.03173828 C56.67953354 88.026577 57.94305145 88.02141571 59.24485779 88.01609802 C60.40598587 88.01602249 61.56711395 88.01594696 62.76342773 88.01586914 C64.30564247 88.01253822 64.30564247 88.01253822 65.87901306 88.00914001 C68.20117188 88.12939453 68.20117188 88.12939453 69.20117188 89.12939453 C69.3009222 91.64075558 69.33999371 94.11842868 69.32617188 96.62939453 C69.33003906 97.33193359 69.33390625 98.03447266 69.33789062 98.75830078 C69.32778565 104.00278075 69.32778565 104.00278075 68.20117188 105.12939453 C65.86402863 105.22963008 63.55642863 105.26558656 61.21875 105.25878906 C60.48869247 105.26054138 59.75863495 105.2622937 59.00645447 105.26409912 C56.58175309 105.26851752 54.15712405 105.2655797 51.73242188 105.26220703 C50.05472805 105.26288007 48.37703431 105.2638501 46.69934082 105.2651062 C43.17862014 105.26658316 39.65792478 105.26442869 36.13720703 105.25976562 C31.61406692 105.25406833 27.09098614 105.25734735 22.56784821 105.26333809 C19.10214792 105.26694376 15.63646181 105.26580509 12.17076111 105.2632103 C10.50251763 105.26254104 8.83427288 105.26336939 7.16603088 105.26568985 C4.83851694 105.26821648 2.5111004 105.26437566 0.18359375 105.25878906 C-0.51254532 105.26081329 -1.20868439 105.26283752 -1.92591858 105.2649231 C-6.68456539 105.24365727 -6.68456539 105.24365727 -7.79882812 104.12939453 C-7.8962488 102.7909998 -7.92514371 101.44752629 -7.92581177 100.10559082 C-7.92863159 99.23900345 -7.93145142 98.37241608 -7.93435669 97.47956848 C-7.93233246 96.52160873 -7.93030823 95.56364899 -7.92822266 94.57666016 C-7.92997498 93.57350266 -7.93172729 92.57034515 -7.93353271 91.53678894 C-7.93795329 88.20305682 -7.93501252 84.86937725 -7.93164062 81.53564453 C-7.93231361 79.23018381 -7.93328358 76.92472317 -7.93453979 74.6192627 C-7.93601705 69.78034797 -7.93386133 64.94145166 -7.92919922 60.10253906 C-7.92350192 53.88444808 -7.92678078 47.66640025 -7.93277168 41.44831085 C-7.93637656 36.68556388 -7.93523905 31.92282723 -7.93264389 27.16007996 C-7.93197442 24.86663305 -7.93280375 22.57318521 -7.93512344 20.27973938 C-7.93764876 17.08051047 -7.93381107 13.8813525 -7.92822266 10.68212891 C-7.93024689 9.72416916 -7.93227112 8.76620941 -7.93435669 7.77922058 C-7.93153687 6.91263321 -7.92871704 6.04604584 -7.92581177 5.15319824 C-7.92543474 4.39586143 -7.92505772 3.63852463 -7.92466927 2.85823822 C-7.61646213 -1.37600468 -3.33297384 0.00205303 0 0 Z " fill="#9B2034" transform="translate(255.798828125,46.87060546875)"/>
<path d="M0 0 C1.12535156 0.00580078 1.12535156 0.00580078 2.2734375 0.01171875 C3.02367187 0.00785156 3.77390625 0.00398438 4.546875 0 C10.14682697 0.01010822 10.14682697 0.01010822 11.2734375 1.13671875 C11.37619717 3.13911724 11.40916409 5.14512234 11.4152832 7.15014648 C11.42231766 8.43916367 11.42935211 9.72818085 11.43659973 11.05625916 C11.43841562 11.75040358 11.44023151 12.444548 11.44210243 13.1597271 C11.44926506 15.33437124 11.46493474 17.50878934 11.48344421 19.68336487 C11.53588802 25.86854741 11.58378202 32.05361416 11.59936523 38.23901367 C11.60951735 42.02055944 11.63903409 45.80154798 11.68068504 49.58287239 C11.69291067 51.01755596 11.69813189 52.45231863 11.69588661 53.88705254 C11.68290531 64.90159111 12.81694968 74.33265571 20.5625 82.66796875 C26.16449491 87.47698721 32.81748643 89.46413066 40.125 89.35546875 C46.81811906 88.67398754 53.6260549 85.34144506 57.90625 80.16015625 C64.60043427 70.7494914 64.58314233 61.61298544 64.65234375 50.390625 C64.66854154 48.96954735 64.68572389 47.54848061 64.70384216 46.12742615 C64.74925337 42.4109093 64.78421473 38.69437752 64.81604004 34.97772217 C64.86819848 29.00494033 64.93293305 23.03231707 65.00425529 17.05973625 C65.02711443 14.97404821 65.04335816 12.88838081 65.05897522 10.80262756 C65.07246506 9.5471965 65.0859549 8.29176544 65.09985352 6.99829102 C65.11412132 5.3323867 65.11412132 5.3323867 65.12867737 3.63282776 C65.2734375 1.13671875 65.2734375 1.13671875 66.2734375 0.13671875 C68.9507513 0.03690661 71.59647925 -0.00208 74.2734375 0.01171875 C75.02367187 0.00785156 75.77390625 0.00398438 76.546875 0 C82.14682697 0.01010822 82.14682697 0.01010822 83.2734375 1.13671875 C83.38338536 3.15893984 83.4225652 5.18503285 83.43457031 7.21020508 C83.44417786 8.51278763 83.4537854 9.81537018 83.46368408 11.15742493 C83.46853619 12.5945315 83.472814 14.03164012 83.4765625 15.46875 C83.48231657 16.94072979 83.48807427 18.41270957 83.49383545 19.88468933 C83.50436505 22.9826187 83.51019259 26.08052203 83.51367188 29.1784668 C83.51911313 33.11773509 83.54303742 37.05665006 83.57164383 40.9958086 C83.59043611 44.04419388 83.59548487 47.09249763 83.59700775 50.1409359 C83.60000558 51.59077541 83.60793511 53.0406145 83.62119293 54.4903965 C83.73489312 67.89856845 82.14399698 79.00937604 74.2734375 90.13671875 C73.61214844 91.09191406 73.61214844 91.09191406 72.9375 92.06640625 C66.35881643 100.6224976 56.17245505 105.6950269 45.7265625 107.6015625 C32.32668285 109.32495743 20.2520094 106.16522071 9.4765625 98.0234375 C-0.49912415 89.47917335 -5.84591159 79.57611319 -7.08267212 66.31970215 C-7.20224616 62.1432319 -7.20480793 57.98554435 -7.15234375 53.80859375 C-7.14740686 52.2825768 -7.14411646 50.75655373 -7.14237976 49.23052979 C-7.13480953 46.06380246 -7.11444826 42.89753854 -7.08325195 39.73095703 C-7.04327272 35.6655108 -7.02557036 31.60036116 -7.01594257 27.53474045 C-7.00600877 23.64681806 -6.98613801 19.75896809 -6.96484375 15.87109375 C-6.961448 15.12942711 -6.95805225 14.38776047 -6.9545536 13.62361908 C-6.94303939 11.54163302 -6.92453865 9.45983927 -6.90356445 7.37792969 C-6.89372025 6.19358337 -6.88387604 5.00923706 -6.87373352 3.78900146 C-6.60560402 -1.04316751 -4.29195915 0.00774722 0 0 Z " fill="#9B2034" transform="translate(539.7265625,46.86328125)"/>
<path d="M0 0 C0.34057617 1.87939453 0.34057617 1.87939453 0.29296875 4.1328125 C0.28330078 4.93847656 0.27363281 5.74414062 0.26367188 6.57421875 C0.23853516 7.41597656 0.21339844 8.25773437 0.1875 9.125 C0.16719727 10.39923828 0.16719727 10.39923828 0.14648438 11.69921875 C0.11108219 13.79974837 0.05727401 15.89995293 0 18 C-3.98275129 17.35454491 -7.36802928 16.10669776 -11.0625 14.5 C-21.23410872 10.08759975 -33.19876694 9.05279903 -43.9375 12.4375 C-52.52288985 16.13562074 -60.24080892 23.38582124 -64 32 C-68.05791308 43.04388893 -67.96668793 54.03395928 -63.1875 64.83984375 C-61.47975742 67.94636233 -59.36709476 70.36989471 -57 73 C-57 73.66 -57 74.32 -57 75 C-56.41992188 75.2784375 -55.83984375 75.556875 -55.2421875 75.84375 C-52.42273897 77.29768165 -49.83576852 79.02807272 -47.1953125 80.78125 C-41.69162135 83.83667996 -36.59527404 84.38810583 -30.4375 84.375 C-29.64754639 84.37338867 -28.85759277 84.37177734 -28.04370117 84.37011719 C-17.97844459 84.16218682 -9.53673144 81.19627131 -1 76 C-0.01 76 0.98 76 2 76 C2.08089542 78.77141717 2.14044062 81.54047819 2.1875 84.3125 C2.21263672 85.09818359 2.23777344 85.88386719 2.26367188 86.69335938 C2.27333984 87.45068359 2.28300781 88.20800781 2.29296875 88.98828125 C2.3086792 89.68477783 2.32438965 90.38127441 2.34057617 91.09887695 C1.89368445 93.59346178 0.94143038 94.42197298 -1 96 C-15.65062574 103.70243506 -33.44762721 104.88265941 -49.14453125 100.02734375 C-63.78111887 94.48460518 -75.14811843 84.35271679 -81.74609375 70.16796875 C-87.58796587 55.40859714 -87.65843649 40.14016782 -81.96875 25.3125 C-75.74846418 11.86323336 -65.32603683 1.94345621 -51.8359375 -3.9921875 C-35.84111296 -9.6762987 -14.543057 -9.69537133 0 0 Z " fill="#9B2034" transform="translate(413,52)"/>
</svg>
